<svg xmlns="http://www.w3.org/2000/svg" viewBox="0 0 1111.92 875.34"><defs><style>.cls-1{fill:#e37c42;}.cls-2{fill:#f3d36a;}.cls-3{fill:#a43f32;}</style></defs><g id="Layer_2" data-name="Layer 2"><g id="Layer_2-2" data-name="Layer 2"><path class="cls-1" d="M993.8,356.65v325.1s-166,52.74-436.5,52.74S124.2,673.82,0,520.74c0,0,112.8-214.09,543.8-214.09C786.8,306.65,993.8,356.65,993.8,356.65Z"/><path class="cls-2" d="M970.3,624.36V411.48a46.62,46.62,0,0,0-38.17-45.85c-52-9.57-150-25.37-249.83-29.48-20,13-14,12-38,12s-37-7-37-17c-8,0-211-23-371,42S78.91,485.2,77.61,493.18s-34.31,85,123.69,161,401,56,401,56-6-14,39-15,37,9,37,9,170.91-10.68,253.07-30.41A50.77,50.77,0,0,0,970.3,624.36Z"/><polygon class="cls-1" points="850.92 352.36 850.92 687.95 884.3 695.15 963.3 676.15 983.3 645.15 979.3 561.15 976.3 456.15 975.3 389.15 966.3 363.15 893.3 342.15 850.92 352.36"/><polygon class="cls-1" points="593.11 327.2 593.11 710.77 538.3 718.15 476.85 718.15 476.85 322.15 593.11 327.2"/><path class="cls-3" d="M0,520.74C124.2,673.82,286.8,734.49,557.3,734.49s436.5-52.74,436.5-52.74V356.65s-207-50-450-50C112.8,306.65,0,520.74,0,520.74Zm77.6-27.57c1.31-8-1.3-55,158.7-120s363-42,371-42c0,10,13,17,37,17s18,1,38-12c99.87,4.1,197.87,19.91,249.83,29.48a46.62,46.62,0,0,1,38.17,45.85V624.35a50.78,50.78,0,0,1-38.93,49.39c-82.16,19.73-253.07,30.41-253.07,30.41s8-10-37-9-39,15-39,15-243,20-401-56S76.3,501.15,77.6,493.17Z"/><path class="cls-3" d="M476.3,653.15l424,125s100,32,115,40c-74-18-110-25-120-29s-419-119.63-419-119.63-12-2.37-11-10.37C466.42,650.17,476.3,653.15,476.3,653.15Z"/><path class="cls-3" d="M886.56,786.43a345.69,345.69,0,0,1,62.74,44.72c14.18,12.81,132,47,142,44s17.22-30.52,19.61-44.26,1.39-16.74-12.61-22.74-96-30-106-33-32.75-2-42.38,0-37.62,3-49.62,3S886.56,786.43,886.56,786.43Z"/><path class="cls-3" d="M510,439.35,854.52,162.41s80.3-67.64,91.12-80.75c-61.58,44.81-92.21,65-99.93,72.48s-342,270.07-342,270.07S493.55,431,497.52,438C502,445.87,510,439.35,510,439.35Z"/><path class="cls-3" d="M838.65,160a345.31,345.31,0,0,0,41-65.23C887.9,77.52,983.85,1.06,994.24,0s27.53,21.68,35,33.48,7.66,14.94-3,25.82-77.37,64.27-85.47,70.85-29.53,14.31-39.19,16.13-35.94,11.54-47,16.1S838.65,160,838.65,160Z"/></g></g></svg>