<svg xmlns="http://www.w3.org/2000/svg" viewBox="0 0 1111.92 875.34"><defs><style>.cls-1{fill:#e37c42;}.cls-2{fill:#f3d36a;}.cls-3{fill:#a43f32;}</style></defs><g id="Layer_2" data-name="Layer 2"><g id="Layer_2-2" data-name="Layer 2"><path class="cls-1" d="M118.12,356.65v325.1s166,52.74,436.5,52.74,433.1-60.67,557.3-213.75c0,0-112.8-214.09-543.8-214.09C325.12,306.65,118.12,356.65,118.12,356.65Z"/><path class="cls-2" d="M141.62,624.36V411.48a46.62,46.62,0,0,1,38.17-45.85c52-9.57,150-25.37,249.83-29.48,20,13,14,12,38,12s37-7,37-17c8,0,211-23,371,42s157.39,112.05,158.69,120,34.31,85-123.69,161-401,56-401,56,6-14-39-15-37,9-37,9-170.91-10.68-253.07-30.41A50.77,50.77,0,0,1,141.62,624.36Z"/><polygon class="cls-1" points="261 352.36 261 687.95 227.62 695.15 148.62 676.15 128.62 645.15 132.62 561.15 135.62 456.15 136.62 389.15 145.62 363.15 218.62 342.15 261 352.36"/><polygon class="cls-1" points="518.81 327.2 518.81 710.77 573.62 718.15 635.07 718.15 635.07 322.15 518.81 327.2"/><path class="cls-3" d="M568.12,306.65c-243,0-450,50-450,50v325.1s166,52.74,436.5,52.74,433.1-60.67,557.3-213.75C1111.92,520.74,999.12,306.65,568.12,306.65Zm342.5,347.5c-158,76-401,56-401,56s6-14-39-15-37,9-37,9-170.91-10.68-253.07-30.41a50.78,50.78,0,0,1-38.93-49.39V411.48a46.62,46.62,0,0,1,38.17-45.85c52-9.57,150-25.38,249.83-29.48,20,13,14,12,38,12s37-7,37-17c8,0,211-23,371,42s157.39,112.05,158.7,120S1068.62,578.15,910.62,654.15Z"/><path class="cls-3" d="M635.62,653.15l-424,125s-100,32-115,40c74-18,110-25,120-29s419-119.63,419-119.63,12-2.37,11-10.37C645.49,650.17,635.62,653.15,635.62,653.15Z"/><path class="cls-3" d="M225.36,786.43a345.69,345.69,0,0,0-62.74,44.72c-14.18,12.81-132,47-142,44S3.4,844.63,1,830.89s-1.39-16.74,12.61-22.74,96-30,106-33,32.75-2,42.37,0,37.63,3,49.63,3S225.36,786.43,225.36,786.43Z"/><path class="cls-3" d="M601.94,439.35,257.4,162.41s-80.3-67.64-91.13-80.75c61.59,44.81,92.22,65,99.94,72.48s342,270.07,342,270.07S618.37,431,614.4,438C609.94,445.87,601.94,439.35,601.94,439.35Z"/><path class="cls-3" d="M273.26,160a345.58,345.58,0,0,1-41-65.23C224,77.52,128.07,1.06,117.68,0s-27.54,21.68-35,33.48-7.66,14.94,3,25.82,77.37,64.27,85.47,70.85,29.53,14.31,39.19,16.13,35.94,11.54,47,16.1S273.26,160,273.26,160Z"/></g></g></svg>