<svg xmlns="http://www.w3.org/2000/svg" xmlns:xlink="http://www.w3.org/1999/xlink" viewBox="0 0 326.72 457.32"><defs><style>.cls-1{fill:none;}.cls-2{fill:#0c0c0c;}.cls-3{fill:#fff;}.cls-4{fill:#66a6db;}.cls-5{fill:url(#New_Pattern_Swatch_1);}</style><pattern id="New_Pattern_Swatch_1" data-name="New Pattern Swatch 1" width="25.33" height="32.13" patternTransform="translate(-87.67 41.03) scale(0.92 0.92)" patternUnits="userSpaceOnUse" viewBox="0 0 25.33 32.13"><rect class="cls-1" width="25.33" height="32.13"/><rect class="cls-2" width="25.33" height="32.13"/></pattern></defs><g id="Layer_2" data-name="Layer 2"><g id="Objects"><rect class="cls-3" x="0.23" y="0.23" width="326.26" height="456.87" rx="11.65"/><path class="cls-4" d="M314.84,457.32h-303A11.89,11.89,0,0,1,0,445.44V11.88A11.89,11.89,0,0,1,11.88,0h303a11.89,11.89,0,0,1,11.88,11.88V445.44A11.89,11.89,0,0,1,314.84,457.32ZM11.88.45A11.45,11.45,0,0,0,.45,11.88V445.44a11.45,11.45,0,0,0,11.43,11.43h303a11.44,11.44,0,0,0,11.42-11.43V11.88A11.44,11.44,0,0,0,314.84.45Z"/><path class="cls-5" d="M293.18,433H33.54V30.66H293.18Zm-258.73-.9H292.27V31.57H34.45Z"/></g></g></svg>