<svg xmlns="http://www.w3.org/2000/svg" viewBox="0 0 24.82 54.64"><defs><style>.cls-1{fill:#151515;}</style></defs><g id="Layer_2" data-name="Layer 2"><g id="Layer_3" data-name="Layer 3"><path class="cls-1" d="M20.55,43.3c-2-2.21-5.14-.9-5.14-.9a3.73,3.73,0,0,0,1.34-3.19.92.92,0,0,0,0-.16,4.39,4.39,0,0,0-8.78,0,4.33,4.33,0,0,0,.09.89A4,4,0,0,0,9.41,42.4s-3.12-1.31-5.14.9A4.59,4.59,0,0,0,3.89,49a4.07,4.07,0,0,0,3.85,2.14c2-.14,2.28-.48,3.66-1.58a9.11,9.11,0,0,1-2,5.07h6a8.55,8.55,0,0,1-1.95-5,4.89,4.89,0,0,0,3.62,1.55A4.08,4.08,0,0,0,20.93,49,4.59,4.59,0,0,0,20.55,43.3Z"/><path d="M0,25.89H2.74a.91.91,0,0,0,1-1V2.25a1,1,0,0,0-.25-.78,1,1,0,0,0-.78-.25H0V0H10.85V1.22H8.3a1,1,0,0,0-.78.25,1,1,0,0,0-.25.78v11.8L16,5.1A3.74,3.74,0,0,0,16.75,4,3.16,3.16,0,0,0,17,2.82a1.48,1.48,0,0,0-.5-1.14,1.7,1.7,0,0,0-1.22-.46h-1V0h10V1.22H22.76c-.84,0-2,.75-3.42,2.24l-6.4,6.48,7.77,14.27a3.12,3.12,0,0,0,1.1,1.32,3.49,3.49,0,0,0,1.75.36h1.26v1.22H13.32V25.89h2.55a1.12,1.12,0,0,0,.73-.25.71.71,0,0,0,.3-.55,2.05,2.05,0,0,0-.08-.51,1.21,1.21,0,0,0-.19-.44l-6.2-11.65-3.16,3.2v9.17a.91.91,0,0,0,1,1h2.55v1.22H0Z"/></g></g></svg>