<svg xmlns="http://www.w3.org/2000/svg" viewBox="0 0 24.81 54.64"><defs><style>.cls-1{fill:#af1917;}</style></defs><g id="Layer_2" data-name="Layer 2"><g id="Objects"><path class="cls-1" d="M0,25.89H2.74a.91.91,0,0,0,1-1V2.25a1.07,1.07,0,0,0-.25-.78,1,1,0,0,0-.78-.25H0V0H10.85V1.22H8.3a1,1,0,0,0-.78.25,1,1,0,0,0-.25.78v11.8L16,5.1A4,4,0,0,0,16.75,4,3.12,3.12,0,0,0,17,2.82a1.47,1.47,0,0,0-.49-1.14,1.72,1.72,0,0,0-1.22-.46h-1V0H24.28V1.22H22.76c-.84,0-2,.75-3.43,2.24L12.94,9.94,20.7,24.21a3.13,3.13,0,0,0,1.11,1.32,3.46,3.46,0,0,0,1.75.36h1.25v1.22H13.32V25.89h2.55a1.07,1.07,0,0,0,.72-.25.69.69,0,0,0,.31-.55,2.05,2.05,0,0,0-.08-.51,1.21,1.21,0,0,0-.19-.44l-6.2-11.65-3.16,3.2v9.17a.91.91,0,0,0,1,1h2.55v1.22H0Z"/><polygon class="cls-1" points="12.26 34.66 4.14 44.6 12.35 54.64 20.67 44.61 12.26 34.66"/></g></g></svg>