<svg xmlns="http://www.w3.org/2000/svg" viewBox="0 0 22.1 55.38"><defs><style>.cls-1{fill:#af1917;}</style></defs><g id="Layer_2" data-name="Layer 2"><g id="Objects"><path class="cls-1" d="M14.52,32.51a11,11,0,0,1-1.11-4.38,9.16,9.16,0,0,1-2.36.38,8.81,8.81,0,0,1-5.73-2.06,13.5,13.5,0,0,1-3.93-5.37A17.82,17.82,0,0,1,0,14.1,17.18,17.18,0,0,1,1.41,7.22,13.17,13.17,0,0,1,5.34,2a9,9,0,0,1,5.71-2,9,9,0,0,1,5.72,2,13.25,13.25,0,0,1,3.92,5.24A17.18,17.18,0,0,1,22.1,14.1a18,18,0,0,1-1.62,7.66,11.76,11.76,0,0,1-4.67,5.34A9.91,9.91,0,0,0,17,30.28a2.23,2.23,0,0,0,2,1.2,1.92,1.92,0,0,0,1.94-1.54,13.46,13.46,0,0,0,.5-4h.72A16.9,16.9,0,0,1,21.21,32a3.42,3.42,0,0,1-3.49,2.23A3.31,3.31,0,0,1,14.52,32.51ZM7.43,26A2.68,2.68,0,0,1,7.24,25a3.49,3.49,0,0,1,1.07-2.63,3.63,3.63,0,0,1,2.63-1,3.75,3.75,0,0,1,2.86,1.14,6.9,6.9,0,0,1,1.56,3,8.71,8.71,0,0,0,2.07-4.3,32.89,32.89,0,0,0,.63-7q0-6.21-1.62-9.55a5.55,5.55,0,0,0-5.39-3.33A5.56,5.56,0,0,0,5.66,4.55Q4,7.9,4,14.1a33.36,33.36,0,0,0,.69,7.09,8.59,8.59,0,0,0,2.66,4.88Zm5.87.84a10,10,0,0,0-.61-3.14,1.84,1.84,0,0,0-1.87-1.2,2.22,2.22,0,0,0-1.64.66A2.5,2.5,0,0,0,8.54,25c0,1.53.83,2.29,2.51,2.29A5.93,5.93,0,0,0,13.3,26.87Z"/><path class="cls-1" d="M16.19,35.39a4.75,4.75,0,0,0-5.14,4.43,4.74,4.74,0,0,0-5.13-4.43c-5.27.12-6,6-4.12,9a27.45,27.45,0,0,0,4.62,5.84,45.49,45.49,0,0,1,4.57,5s0,.15.06.11.06-.11.06-.11a45.49,45.49,0,0,1,4.57-5,27.78,27.78,0,0,0,4.63-5.84C22.15,41.41,21.45,35.51,16.19,35.39Z"/></g></g></svg>