<?xml version="1.0" encoding="utf-8"?>
<!-- Generator: Adobe Illustrator 25.1.0, SVG Export Plug-In . SVG Version: 6.00 Build 0)  -->
<svg version="1.1" xmlns="http://www.w3.org/2000/svg" xmlns:xlink="http://www.w3.org/1999/xlink" x="0px" y="0px"
	 viewBox="0 0 1920 1080" style="enable-background:new 0 0 1920 1080;" xml:space="preserve">
<style type="text/css">
	.st0{fill:#8EC4EC;}
	.st1{fill:#DCEAF4;}
	.st2{fill:#4FA2CC;}
	.st3{fill:#CCE3C4;}
</style>
<g id="Layer_1">
	<path class="st0" d="M786.7-71.6c0,0,136.9,170.6,35.7,359s-77,362.8-18.7,461.3c59.9,101.1,92.8,181,2.1,338.8
		s321.3,69.3,321.3,69.3s82.6-224.8,0-392.7c-77.8-158.2-120.1-273.8-38.5-465.9c72.8-171.4-15.4-438.9-88.6-438.9
		S786.7-71.6,786.7-71.6z"/>
</g>
<g id="Layer_3">
	<g>
		<path class="st1" d="M875.7-8.2c31.6,55.5,34.8,129.4,18.7,191.3s-44.8,119.6-64.8,180.3s-30.9,127.5-10.5,188.1
			c-22.1-83.6,9.2-171,40.8-251.4S924.5,133.3,905.7,49c-4.6-20.8-11.8-43.6-21.4-57.1H875.7z"/>
	</g>
	<g>
		<path class="st1" d="M1131.2,971.8c1.8,14.5,0.5,29.3-3.6,43.2c6-107.5-29.3-212.8-69.3-312.8c-20.5-51.2-42.5-102.2-53-156.3
			c-10.5-54.1-8.7-112.5,16.9-161.3c0,0-23,84.7-11,153c14.1,79.9,55.4,147.1,90.7,261.4S1131.2,971.8,1131.2,971.8z"/>
	</g>
	<g>
		<path class="st2" d="M921.4-33.5c36.3,27.4,63,75.6,69.8,120.5s1.1,90.9-7.3,135.6c-22.3,119.2-63.1,242-30.2,358.7
			c16.8,59.6,51.8,112.4,74,170.3c25.6,66.7,33.7,140.1,23.3,210.8c-8.7-56.3-21.5-112-38.1-166.5c-4.9-16.2-17.6-45.9-25.2-61
			c-12.5-25.1-23.3-33.2-38.4-56.8c-38.6-60.3-55.9-132.7-56.3-204.3s15.5-142.5,39.3-210.1c14.8-42,32.9-83.8,35.2-128.2
			C970.6,76.6,945.7,20.3,921.4-33.5"/>
	</g>
	<g>
		<path class="st2" d="M868,681.7c15.2,45.1,63.6,88.6,81.1,132.8c38.6,97.9-45,212.7-6.9,310.9c-23.1-5.1-30.6-33.9-31.8-57.5
			c-1.7-33,0.3-66.2,6-98.7c5.2-30,13.5-59.9,12.1-90.3C925.3,809.8,873.2,750.6,868,681.7"/>
	</g>
</g>
<g id="Layer_2">
	<g>
		<g>
			<path class="st3" d="M500.2,557.6c-1.5-6.8-2.9-13.5-4.4-20.3c-0.3-1.3-3.2-0.5-2.9,0.8c1.5,6.8,2.9,13.5,4.4,20.3
				C497.6,559.6,500.5,558.9,500.2,557.6L500.2,557.6z"/>
		</g>
	</g>
	<g>
		<g>
			<path class="st3" d="M505.9,556.6c-0.1-6,1-12,3.2-17.6c0.2-0.6-2.6-0.3-2.9,0.5c-2.2,5.7-3.3,11.8-3.2,17.9
				C503,557.9,505.9,557.5,505.9,556.6L505.9,556.6z"/>
		</g>
	</g>
	<g>
		<g>
			<path class="st3" d="M513.6,556.9c0.5-4.3,1.9-8.4,3.9-12.3c0.3-0.6-0.3-1-0.9-1.1c-0.7-0.1-1.6,0.2-1.9,0.9
				c-2.2,3.9-3.6,8.3-4.1,12.8C510.5,558.5,513.5,558.1,513.6,556.9L513.6,556.9z"/>
		</g>
	</g>
	<g>
		<g>
			<path class="st3" d="M392.4,252.5c4.7,3.6,8.6,8.1,11.6,13.1c0.5,0.8,3.2-0.3,2.9-0.8c-3.1-5.2-7.1-9.7-11.8-13.4
				c-0.5-0.4-1.4-0.1-1.9,0.1C393,251.6,391.9,252.1,392.4,252.5L392.4,252.5z"/>
		</g>
	</g>
	<g>
		<g>
			<path class="st3" d="M406.5,250.2c3.7,3.1,6,7.6,6.5,12.4c0.1,0.7,1.2,0.8,1.7,0.6c0.7-0.2,1.2-0.7,1.2-1.4
				c-0.5-5.2-3.2-10-7.2-13.3C407.7,247.7,405.2,249.1,406.5,250.2L406.5,250.2z"/>
		</g>
	</g>
	<g>
		<g>
			<path class="st3" d="M416.6,248c3,2.9,4.8,7,4.8,11.3c0,0.7,0.7,0.7,1.3,0.7c0.4-0.1,1.6-0.4,1.6-1c0.1-4.5-1.7-8.9-5-12.1
				c-0.5-0.5-1.4-0.3-1.9-0.1C417,247,416.1,247.6,416.6,248L416.6,248z"/>
		</g>
	</g>
	<g>
		<g>
			<path class="st3" d="M684.1,42.6c2.7,3.8,5.3,7.5,8,11.3c0.8,1.1,3.5,0,2.6-1.3c-2.7-3.8-5.3-7.5-8-11.3
				C686,40.2,683.2,41.3,684.1,42.6L684.1,42.6z"/>
		</g>
	</g>
	<g>
		<g>
			<path class="st3" d="M696.5,42.2c0,4.5,0,9,0,13.6c0,0.8,2.9,0.3,2.9-0.8c0-4.5,0-9,0-13.6C699.4,40.6,696.5,41.1,696.5,42.2
				L696.5,42.2z"/>
		</g>
	</g>
	<g>
		<g>
			<path class="st3" d="M706.7,41.1c0.3,2.8-0.1,5.8-1,8.5c-0.6,1.6,2.3,1.7,2.8,0.4c1.1-3.1,1.5-6.4,1.1-9.6c0-0.3-0.4-0.5-0.6-0.6
				c-0.3-0.1-0.8-0.1-1.1,0C707.1,39.9,706.6,40.3,706.7,41.1L706.7,41.1z"/>
		</g>
	</g>
	<g>
		<g>
			<path class="st3" d="M687.5,273.1c1.8,1.9,3.7,3.8,5.5,5.8c0.6,0.7,3.4-0.4,2.7-1.1c-1.8-1.9-3.7-3.8-5.5-5.8
				C689.6,271.4,686.9,272.4,687.5,273.1L687.5,273.1z"/>
		</g>
	</g>
	<g>
		<g>
			<path class="st3" d="M696.5,271.8c1.1,2,1.5,4.3,1.1,6.6c-0.2,1.2,2.7,0.7,2.9-0.3c0.4-2.4,0.1-4.9-1.1-7
				c-0.3-0.6-1.1-0.5-1.7-0.4c-0.3,0.1-0.7,0.2-1,0.5C696.7,271.3,696.4,271.6,696.5,271.8L696.5,271.8z"/>
		</g>
	</g>
	<g>
		<g>
			<path class="st3" d="M780.8,114.4c0.4-1.1,0.8-2.3,1.2-3.4c0.1-0.3,0.1-0.5-0.1-0.8c-0.2-0.2-0.5-0.4-0.8-0.4
				c-0.4,0-0.8,0-1.1,0.2c-0.3,0.1-0.6,0.4-0.7,0.7c-0.4,1.1-0.8,2.3-1.2,3.4c-0.1,0.3-0.1,0.5,0.1,0.8c0.2,0.2,0.5,0.4,0.8,0.4
				c0.4,0,0.8,0,1.1-0.2C780.4,115,780.7,114.7,780.8,114.4L780.8,114.4z"/>
		</g>
	</g>
	<g>
		<g>
			<path class="st3" d="M787.9,100.8c-1.5,4-0.4,8.7,2.7,11.7c0.7,0.7,3.4-0.4,2.7-1.1c-2.9-2.8-3.8-7.2-2.5-10.9
				c0.2-0.6-0.9-0.6-1.2-0.6C789,99.9,788.1,100.1,787.9,100.8L787.9,100.8z"/>
		</g>
	</g>
	<g>
		<g>
			<path class="st3" d="M797.3,104.1c-1.2,1.3-1.6,3.2-1.2,4.9c0.1,0.2,0.4,0.3,0.5,0.3c0.3,0.1,0.7,0,1.1-0.1
				c0.3-0.1,0.7-0.2,1-0.5c0.1-0.1,0.4-0.3,0.3-0.5c-0.1-0.5-0.2-1-0.2-1.5c0,0.1,0,0.1,0,0.2c0-0.5,0.1-1.1,0.3-1.6
				c0-0.1,0.1-0.2,0.2-0.3c0-0.1,0.1-0.1,0.1-0.2c0.1-0.2-0.1,0.1,0-0.1c0.2-0.2,0.3-0.5,0.5-0.7c0.1-0.1,0.2-0.4,0-0.5
				c-0.2-0.2-0.6-0.2-0.8-0.2C798.5,103.3,797.7,103.6,797.3,104.1L797.3,104.1z"/>
		</g>
	</g>
	<g>
		<g>
			<path class="st3" d="M261.2,620.3c4.1,3.4,8.2,6.9,12.4,10.3c0.5,0.4,1.4,0.2,1.9,0c0.3-0.1,1.3-0.7,0.8-1.1
				c-4.1-3.4-8.2-6.9-12.4-10.3c-0.5-0.4-1.4-0.2-1.9,0C261.8,619.3,260.8,619.8,261.2,620.3L261.2,620.3z"/>
		</g>
	</g>
	<g>
		<g>
			<path class="st3" d="M274.7,619.9c0,3,0,6,0,9c0,0.7,0.7,0.8,1.3,0.7c0.5-0.1,1.6-0.4,1.6-1c0-3,0-6,0-9c0-0.7-0.7-0.8-1.3-0.7
				C275.8,618.9,274.7,619.3,274.7,619.9L274.7,619.9z"/>
		</g>
	</g>
	<g>
		<g>
			<path class="st3" d="M284.8,620.2c0,2.3,0,4.5,0,6.8c0,0.2,0.4,0.3,0.5,0.3c0.3,0.1,0.8,0,1.1-0.1c0.5-0.1,1.3-0.4,1.3-1
				c0-2.3,0-4.5,0-6.8c0-0.2-0.4-0.3-0.5-0.3c-0.3-0.1-0.8,0-1.1,0.1C285.6,619.3,284.8,619.6,284.8,620.2L284.8,620.2z"/>
		</g>
	</g>
	<g>
		<g>
			<path class="st3" d="M689.9,847.5c1.5,1.9,3,3.8,4.5,5.7c0.1,0.2,0.6,0.1,0.8,0.1c0.4,0,0.8-0.1,1.1-0.2c0.3-0.1,1.2-0.5,0.8-0.9
				c-1.5-1.9-3-3.8-4.5-5.7c-0.1-0.2-0.6-0.1-0.8-0.1c-0.4,0-0.8,0.1-1.1,0.2C690.4,846.7,689.6,847.1,689.9,847.5L689.9,847.5z"/>
		</g>
	</g>
	<g>
		<g>
			<path class="st3" d="M697.7,841.8c0.4,2.3,0.8,4.5,1.1,6.8c0,0.2,0.4,0.3,0.6,0.4c0.3,0.1,0.8,0,1.1-0.1c0.4-0.1,1.4-0.5,1.3-1.1
				c-0.4-2.3-0.8-4.5-1.1-6.8c0-0.2-0.4-0.3-0.6-0.4c-0.3-0.1-0.8,0-1.1,0.1C698.5,840.9,697.6,841.2,697.7,841.8L697.7,841.8z"/>
		</g>
	</g>
	<g>
		<g>
			<path class="st3" d="M710.3,840.6c-0.4,2.3-0.8,4.5-1.2,6.8c-0.1,0.5,0.9,0.4,1.2,0.3c0.4-0.1,0.8-0.2,1.1-0.3
				c0.2-0.1,0.5-0.3,0.6-0.5c0.4-2.3,0.8-4.5,1.2-6.8c0.1-0.5-0.9-0.4-1.2-0.3c-0.4,0.1-0.8,0.2-1.1,0.3
				C710.7,840.2,710.3,840.4,710.3,840.6L710.3,840.6z"/>
		</g>
	</g>
	<g>
		<g>
			<path class="st3" d="M306.8,958.4c4.2,1.8,8,4.6,10.9,8.1c0.7,0.9,3.5-0.2,2.7-1.2c-3-3.7-7-6.6-11.3-8.4
				c-0.7-0.3-1.5-0.2-2.1,0.2C306.6,957.3,306.1,958.1,306.8,958.4L306.8,958.4z"/>
		</g>
	</g>
	<g>
		<g>
			<path class="st3" d="M326.5,965.8c0.4-4.5,0.7-9.1,1.1-13.6c0.1-1.5-2.8-1.1-2.9,0.2c-0.4,4.5-0.7,9.1-1.1,13.6
				C323.4,967.5,326.4,967.1,326.5,965.8L326.5,965.8z"/>
		</g>
	</g>
	<g>
		<g>
			<path class="st3" d="M335.7,972c1.9-2.9,2.7-6.4,2.4-9.9c0-0.3-0.4-0.5-0.6-0.6c-0.3-0.1-0.8-0.1-1.1,0c-0.7,0.2-1.3,0.6-1.2,1.4
				c0.3,3.1-0.5,6.2-2.2,8.8c-0.4,0.6,0.4,1.1,0.9,1.2C334.6,973,335.3,972.7,335.7,972L335.7,972z"/>
		</g>
	</g>
	<g>
		<g>
			<path class="st3" d="M191.2,750.2c0.8,2.7,2.2,5.3,4.2,7.2c0.5,0.5,1.4,0.3,1.9,0.1c0.3-0.2,1.2-0.7,0.8-1.2
				c-1.9-1.9-3.3-4.3-4-6.9c-0.2-0.6-1.2-0.5-1.7-0.4C192,749.2,191,749.6,191.2,750.2L191.2,750.2z"/>
		</g>
	</g>
	<g>
		<g>
			<path class="st3" d="M191.1,750.4c4.3,3.2,7.8,7.4,10.3,12.1c0.3,0.6,1.1,0.5,1.7,0.4c0.3-0.1,1.5-0.6,1.2-1.2
				c-2.6-4.9-6.1-9.2-10.5-12.5c-0.5-0.4-1.3-0.3-1.9-0.1C191.5,749.3,190.5,750,191.1,750.4L191.1,750.4z"/>
		</g>
	</g>
	<g>
		<g>
			<path class="st3" d="M210.3,749.1c-0.5,3.4-0.9,6.8-1.4,10.1c-0.1,0.4,1.4,0.1,1.6,0c0.4-0.1,1.3-0.3,1.3-0.8
				c0.5-3.4,0.9-6.8,1.4-10.1c0.1-0.4-1.4-0.1-1.6,0C211.2,748.4,210.3,748.6,210.3,749.1L210.3,749.1z"/>
		</g>
	</g>
	<g>
		<g>
			<path class="st3" d="M431,735.6c1.5,2.3,3,4.5,4.5,6.8c0.2,0.2,0.6,0.4,0.8,0.4c0.4,0,0.8,0,1.1-0.2c0.5-0.3,1.1-0.8,0.7-1.4
				c-1.5-2.3-3-4.5-4.5-6.8c-0.2-0.2-0.6-0.4-0.8-0.4c-0.4,0-0.8,0-1.1,0.2C431.2,734.5,430.6,735,431,735.6L431,735.6z"/>
		</g>
	</g>
	<g>
		<g>
			<path class="st3" d="M432.4,735.8c0.1,0,0.2-0.1,0.3-0.1c0,0,0.3-0.1,0.1,0c-0.2,0,0.2,0,0.2,0c0.1,0,0.2,0,0.3,0
				c0.4-0.1-0.1,0,0.1,0c0.1,0,0.2,0,0.3,0c0.1,0,0.2,0,0.3,0c0,0,0.1,0,0.1,0c-0.1,0-0.1,0,0,0c0.8,0,1.5,0.2,2.2,0.5
				c1.5,0.6,2.8,1.5,3.7,2.8c0.1,0.2,0.6,0.2,0.8,0.2c0.4,0,0.8-0.1,1.1-0.2c0.4-0.1,1.2-0.5,0.8-1c-2.4-3.3-6.9-4.3-10.7-3.2
				c-0.4,0.1-1.4,0.4-1.3,1C430.9,736.2,432.1,735.9,432.4,735.8L432.4,735.8z"/>
		</g>
	</g>
	<g>
		<g>
			<path class="st3" d="M447.7,731.9c0,2.3,0,4.5,0,6.8c0,0.6,0.7,0.8,1.3,0.7c0.4-0.1,0.8-0.2,1.1-0.4c0.2-0.1,0.5-0.4,0.5-0.6
				c0-2.3,0-4.5,0-6.8c0-0.6-0.7-0.8-1.3-0.7c-0.4,0.1-0.8,0.2-1.1,0.4C448,731.4,447.7,731.6,447.7,731.9L447.7,731.9z"/>
		</g>
	</g>
	<g>
		<g>
			<path class="st3" d="M615.2,659.8c1.8,1.6,3.6,3.2,5.4,4.8c0.2,0.2,0.5,0.2,0.8,0.2c0.4,0,0.8-0.1,1.1-0.2c0.3-0.1,1.3-0.6,0.8-1
				c-1.8-1.6-3.6-3.2-5.4-4.8c-0.2-0.2-0.5-0.2-0.8-0.2c-0.4,0-0.8,0.1-1.1,0.2C615.8,659,614.8,659.4,615.2,659.8L615.2,659.8z"/>
		</g>
	</g>
	<g>
		<g>
			<path class="st3" d="M626.4,649.3c0,4.1,0,8.3,0,12.4c0,0.7,0.7,0.7,1.3,0.7c0.4,0,1.6-0.4,1.6-1c0-4.1,0-8.3,0-12.4
				c0-0.7-0.7-0.7-1.3-0.7C627.6,648.4,626.4,648.7,626.4,649.3L626.4,649.3z"/>
		</g>
	</g>
	<g>
		<g>
			<path class="st3" d="M575.5,993.7c2.3,2.6,4.5,5.3,6.8,7.9c0.4,0.5,1.4,0.4,1.9,0.1c0.4-0.2,1.2-0.8,0.7-1.3
				c-2.3-2.6-4.5-5.3-6.8-7.9c-0.4-0.5-1.4-0.4-1.9-0.1C575.8,992.6,575,993.1,575.5,993.7L575.5,993.7z"/>
		</g>
	</g>
	<g>
		<g>
			<path class="st3" d="M591.3,985.2c0.2,5.7-0.2,11.4-1.2,16.9c-0.3,1.3,2.7,0.9,2.9-0.3c1-5.6,1.5-11.3,1.2-16.9
				C594.2,983.5,591.3,984,591.3,985.2L591.3,985.2z"/>
		</g>
	</g>
	<g>
		<g>
			<path class="st3" d="M603.5,998.5c1.9-4.4,3.3-9,4.2-13.7c0.1-0.6-2.7-0.2-2.9,0.5c-0.9,4.7-2.3,9.3-4.2,13.7
				c-0.2,0.5,1,0.3,1.2,0.3C602.3,999.2,603.3,999,603.5,998.5L603.5,998.5z"/>
		</g>
	</g>
	<g>
		<g>
			<path class="st3" d="M615.7,999.7c-0.1-4.3,1-8.5,3.2-12.2c0.4-0.6-0.3-1.1-0.9-1.2c-0.7-0.1-1.5,0.2-1.9,0.9
				c-2.3,3.8-3.5,8.3-3.4,12.8c0,0.7,0.7,1,1.3,0.9C614.7,1000.8,615.7,1000.4,615.7,999.7L615.7,999.7z"/>
		</g>
	</g>
	<g>
		<g>
			<path class="st3" d="M754.3,922c0.8,1.1,1.5,2.2,2.3,3.4c0.1,0.2,0.3,0.2,0.5,0.2c0.3,0,0.7,0,1.1-0.1c0.3-0.1,0.7-0.2,1-0.4
				c0.1-0.1,0.4-0.3,0.3-0.5c-0.8-1.1-1.5-2.2-2.3-3.4c-0.1-0.2-0.3-0.2-0.5-0.2c-0.3,0-0.7,0-1.1,0.1c-0.3,0.1-0.7,0.2-1,0.4
				C754.6,921.6,754.2,921.9,754.3,922L754.3,922z"/>
		</g>
	</g>
	<g>
		<g>
			<path class="st3" d="M766.6,913.9c0,3,0,6,0,9c0,0.7,0.7,1.1,1.4,1c0.6-0.1,1.6-0.5,1.6-1.2c0-3,0-6,0-9c0-0.7-0.7-1.1-1.4-1
				C767.6,912.8,766.6,913.2,766.6,913.9L766.6,913.9z"/>
		</g>
	</g>
	<g>
		<g>
			<path class="st3" d="M53.4,964.3c3.4,1.9,6.7,3.9,10.1,5.8c0.7,0.4,1.5,0.3,2.1-0.2c0.5-0.4,0.8-1.2,0.1-1.6
				c-3.4-1.9-6.7-3.9-10.1-5.8c-0.7-0.4-1.5-0.3-2.1,0.2C53.1,963,52.8,963.9,53.4,964.3L53.4,964.3z"/>
		</g>
	</g>
	<g>
		<g>
			<path class="st3" d="M70,959.5c0.4,3.8,0.9,7.5,1.3,11.3c0.1,0.6,1.3,0.5,1.7,0.4c0.5-0.1,1.3-0.5,1.2-1.1
				c-0.4-3.8-0.9-7.5-1.3-11.3c-0.1-0.6-1.3-0.5-1.7-0.4C70.7,958.4,69.9,958.8,70,959.5L70,959.5z"/>
		</g>
	</g>
	<g>
		<g>
			<path class="st3" d="M100.7,1065.7c1,2.7,2.1,5.4,3.1,8c0.2,0.4,1.3,0.1,1.6,0c0.2-0.1,1.5-0.4,1.3-0.8c-1-2.7-2.1-5.4-3.1-8
				c-0.2-0.4-1.3-0.1-1.6,0C101.9,1064.9,100.6,1065.3,100.7,1065.7L100.7,1065.7z"/>
		</g>
	</g>
	<g>
		<g>
			<path class="st3" d="M110.8,1062.3c1.2,2,1.5,4.4,1,6.6c-0.2,1,2.7,0.6,2.9-0.4c0.6-2.4,0.3-4.9-1-7c-0.3-0.5-1.1-0.4-1.6-0.3
				c-0.3,0.1-0.7,0.2-1,0.5C110.9,1061.8,110.6,1062.1,110.8,1062.3L110.8,1062.3z"/>
		</g>
	</g>
	<g>
		<g>
			<path class="st3" d="M67.7,592.1c3.5,2.9,6.9,5.9,10.4,8.8c0.1,0.1,0.6,0.1,0.7,0.1c0.4,0,0.8-0.1,1.1-0.3
				c0.2-0.1,1.2-0.5,0.9-0.8c-3.5-2.9-6.9-5.9-10.4-8.8c-0.1-0.1-0.6-0.1-0.7-0.1c-0.4,0-0.8,0.1-1.1,0.3
				C68.4,591.4,67.3,591.8,67.7,592.1L67.7,592.1z"/>
		</g>
	</g>
	<g>
		<g>
			<path class="st3" d="M84.6,583.7c0,4.5,0,9,0,13.6c0,1.4,2.9,1,2.9-0.3c0-4.5,0-9,0-13.6C87.6,582,84.6,582.5,84.6,583.7
				L84.6,583.7z"/>
		</g>
	</g>
	<g>
		<g>
			<path class="st3" d="M100.7,584.8c0,4.5-0.1,9-0.1,13.6c0,1.4,2.9,1,2.9-0.3c0-4.5,0.1-9,0.1-13.6
				C103.7,583.1,100.7,583.6,100.7,584.8L100.7,584.8z"/>
		</g>
	</g>
	<g>
		<g>
			<path class="st3" d="M676.1,394c0.6,3.1,3.2,5.6,6.3,6.2c0.7,0.1,1.6,0,2-0.5c0.2-0.2,0.4-0.5,0.3-0.7c-0.1-0.3-0.3-0.5-0.6-0.5
				c-0.3-0.1-0.7-0.2-1-0.3c-0.1,0-0.2-0.1-0.2-0.1c-0.1,0-0.1,0-0.1-0.1c0,0,0.1,0,0.1,0.1c-0.1,0-0.3-0.2-0.5-0.2
				c-0.3-0.2-0.6-0.3-0.9-0.5c-0.1-0.1-0.2-0.1-0.2-0.2c0,0-0.1-0.1-0.1-0.1c0.1,0.1,0.1,0.1,0,0c-0.1-0.1-0.3-0.2-0.4-0.4
				c-0.5-0.5-0.9-1-1.2-1.6c-0.1-0.2,0.1,0.1,0-0.1c0-0.1-0.1-0.2-0.1-0.3c-0.1-0.2-0.1-0.3-0.2-0.5c-0.1-0.3-0.2-0.7-0.3-1
				c-0.1-0.3-0.4-0.4-0.6-0.5c-0.3-0.1-0.8-0.1-1.1,0C676.8,392.9,676,393.3,676.1,394L676.1,394z"/>
		</g>
	</g>
	<g>
		<g>
			<path class="st3" d="M689.4,395.8c0.7-3,1.4-6.1,2.1-9.1c0.2-0.7-0.8-1-1.3-1c-0.7,0.1-1.4,0.5-1.6,1.2c-0.7,3-1.4,6.1-2.1,9.1
				c-0.2,0.7,0.8,1,1.3,1C688.5,396.9,689.2,396.5,689.4,395.8L689.4,395.8z"/>
		</g>
	</g>
	<g>
		<g>
			<path class="st3" d="M699.3,397.8c0.8-3,1.5-6,2.3-9c0.2-0.7-2.7-0.3-2.9,0.5c-0.8,3-1.5,6-2.3,9
				C696.2,399,699.1,398.6,699.3,397.8L699.3,397.8z"/>
		</g>
	</g>
	<g>
		<g>
			<path class="st3" d="M54.2,47c3.5,2.9,6.6,6.3,9.1,10.1c0.3,0.5,1.5,0.2,1.9,0c0.4-0.2,1.1-0.6,0.8-1.2
				c-2.5-3.8-5.6-7.2-9.1-10.1c-0.5-0.4-1.4-0.3-1.9,0C54.7,45.9,53.7,46.5,54.2,47L54.2,47z"/>
		</g>
	</g>
	<g>
		<g>
			<path class="st3" d="M64.3,41.1c0,2.6,0,5.3,0,7.9c0,0.6,2.9,0.1,2.9-0.8c0-2.6,0-5.3,0-7.9C67.2,39.7,64.3,40.2,64.3,41.1
				L64.3,41.1z"/>
		</g>
	</g>
	<g>
		<g>
			<path class="st3" d="M75.7,40c-0.5,3.8-0.9,7.5-1.4,11.3c0,0.4,2.8,0.1,2.9-0.8c0.5-3.8,0.9-7.5,1.4-11.3
				C78.7,38.9,75.8,39.1,75.7,40L75.7,40z"/>
		</g>
	</g>
	<g>
		<g>
			<path class="st3" d="M141.3,296.7c0.7,4,2.7,7.6,5.6,10.4c0.7,0.6,3.4-0.5,2.7-1.1c-2.8-2.7-4.7-6.2-5.4-10.1
				C144,295.1,141.1,295.7,141.3,296.7L141.3,296.7z"/>
		</g>
	</g>
	<g>
		<g>
			<path class="st3" d="M148.2,289.9c0.4,3.8,0.7,7.5,1.1,11.3c0.1,0.7,1.3,0.6,1.7,0.5c0.6-0.2,1.3-0.6,1.2-1.2
				c-0.4-3.8-0.7-7.5-1.1-11.3c-0.1-0.7-1.3-0.6-1.7-0.5C148.9,288.8,148.2,289.2,148.2,289.9L148.2,289.9z"/>
		</g>
	</g>
	<g>
		<g>
			<path class="st3" d="M159.3,296.5c0,2.3,0,4.5,0,6.8c0,0.6,0.7,0.7,1.3,0.7c0.4-0.1,0.8-0.2,1.1-0.4c0.2-0.1,0.5-0.4,0.5-0.6
				c0-2.3,0-4.5,0-6.8c0-0.6-0.7-0.7-1.3-0.7c-0.4,0.1-0.8,0.2-1.1,0.4C159.7,296,159.3,296.2,159.3,296.5L159.3,296.5z"/>
		</g>
	</g>
	<g>
		<g>
			<path class="st3" d="M1719.5,202.3c0.7,4,2.7,7.6,5.6,10.4c0.7,0.6,3.4-0.5,2.7-1.1c-2.8-2.7-4.7-6.2-5.4-10.1
				C1722.2,200.7,1719.3,201.4,1719.5,202.3L1719.5,202.3z"/>
		</g>
	</g>
	<g>
		<g>
			<path class="st3" d="M1726.4,195.5c0.4,3.8,0.7,7.5,1.1,11.3c0.1,0.7,1.3,0.6,1.7,0.5c0.6-0.2,1.3-0.6,1.2-1.2
				c-0.4-3.8-0.7-7.5-1.1-11.3c-0.1-0.7-1.3-0.6-1.7-0.5C1727,194.4,1726.3,194.8,1726.4,195.5L1726.4,195.5z"/>
		</g>
	</g>
	<g>
		<g>
			<path class="st3" d="M1737.5,202.1c0,2.3,0,4.5,0,6.8c0,0.6,0.7,0.7,1.3,0.7c0.4-0.1,0.8-0.2,1.1-0.4c0.2-0.1,0.5-0.4,0.5-0.6
				c0-2.3,0-4.5,0-6.8c0-0.6-0.7-0.7-1.3-0.7c-0.4,0.1-0.8,0.2-1.1,0.4C1737.8,201.6,1737.5,201.9,1737.5,202.1L1737.5,202.1z"/>
		</g>
	</g>
	<g>
		<g>
			<path class="st3" d="M399.1,64.9c1.3,2.9,3.4,5.3,6,7.1c0.2,0.2,0.7,0.2,1,0.1c0.4,0,0.8-0.2,1.1-0.4c0.5-0.3,0.8-0.8,0.2-1.2
				c-2.2-1.6-4.2-3.9-5.4-6.4c-0.3-0.6-1.1-0.6-1.7-0.4c-0.3,0.1-0.7,0.2-1,0.5C399.2,64.3,399,64.6,399.1,64.9L399.1,64.9z"/>
		</g>
	</g>
	<g>
		<g>
			<path class="st3" d="M408.1,62.6c1.1,3.2,1.5,6.6,1.1,10c-0.1,1,2.8,0.5,2.9-0.4c0.4-3.5,0.1-7-1.1-10.4
				c-0.2-0.6-1.2-0.4-1.6-0.3C409.1,61.6,407.9,62,408.1,62.6L408.1,62.6z"/>
		</g>
	</g>
	<g>
		<g>
			<path class="st3" d="M421,54.6c1,4.5,0.4,9.3-1.8,13.4c-0.3,0.6,1,0.5,1.2,0.5c0.6-0.1,1.4-0.3,1.7-0.9c2.2-4.2,2.8-9.1,1.8-13.8
				C423.7,52.9,420.8,53.6,421,54.6L421,54.6z"/>
		</g>
	</g>
	<g>
		<g>
			<path class="st3" d="M191,115.7c1.8,2.3,3.7,4.6,5.5,6.9c0.3,0.4,1.2,0.1,1.6,0c0.1,0,1.6-0.5,1.3-0.8c-1.8-2.3-3.7-4.6-5.5-6.9
				c-0.3-0.4-1.2-0.1-1.6,0C192.2,115,190.8,115.5,191,115.7L191,115.7z"/>
		</g>
	</g>
	<g>
		<g>
			<path class="st3" d="M202.3,111c0,3.4,0,6.8,0,10.2c0,0.7,0.7,0.8,1.3,0.7c0.4,0,1.6-0.4,1.6-1c0-3.4,0-6.8,0-10.2
				c0-0.7-0.7-0.8-1.3-0.7C203.5,110,202.3,110.4,202.3,111L202.3,111z"/>
		</g>
	</g>
	<g>
		<g>
			<path class="st3" d="M211.3,116.9c0,2.6,0,5.3,0,7.9c0,0.4,1.4,0,1.6,0c0.3-0.1,0.7-0.2,1-0.4c0.1-0.1,0.4-0.2,0.4-0.4
				c0-2.6,0-5.3,0-7.9c0-0.4-1.4,0-1.6,0c-0.3,0.1-0.7,0.2-1,0.4C211.5,116.6,211.3,116.7,211.3,116.9L211.3,116.9z"/>
		</g>
	</g>
	<g>
		<g>
			<path class="st3" d="M558.5,159c1.4,2.6,3.6,4.6,6.3,5.8c0.3,0.1,0.8,0.1,1.1,0c0.3-0.1,0.7-0.3,1-0.5c0.2-0.2,0.3-0.5,0.2-0.8
				c-0.1-0.3-0.3-0.4-0.6-0.5c-0.3-0.1,0.2,0.1-0.1,0c-0.1,0-0.1-0.1-0.2-0.1c-0.1-0.1-0.3-0.2-0.4-0.2c-0.3-0.2-0.6-0.3-0.9-0.5
				c-0.3-0.2-0.5-0.4-0.8-0.6c-0.1-0.1-0.3-0.2-0.4-0.3c-0.1-0.1,0.1,0.1,0,0c-0.1-0.1-0.1-0.1-0.2-0.2c-1-0.9-1.8-2-2.4-3.2
				c-0.1-0.2-0.6-0.4-0.8-0.4c-0.4,0-0.8,0-1.1,0.2c-0.3,0.1-0.6,0.3-0.8,0.7C558.3,158.6,558.3,158.8,558.5,159L558.5,159z"/>
		</g>
	</g>
	<g>
		<g>
			<path class="st3" d="M572.6,161.4c0.8-3,1.5-6,2.3-9c0.1-0.5-0.9-0.3-1.2-0.2c-0.4,0.1-0.8,0.2-1.1,0.3c-0.2,0.1-0.5,0.2-0.6,0.4
				c-0.8,3-1.5,6-2.3,9c-0.1,0.5,0.9,0.3,1.2,0.2c0.4-0.1,0.8-0.2,1.1-0.3C572.2,161.8,572.6,161.6,572.6,161.4L572.6,161.4z"/>
		</g>
	</g>
	<g>
		<g>
			<path class="st3" d="M515.7,334.2c0.8,1.1,1.5,2.3,2.3,3.4c0.1,0.2,0.6,0.2,0.8,0.3c0.4,0,0.8-0.1,1.1-0.2
				c0.3-0.1,0.6-0.3,0.8-0.6c0-0.1,0.1-0.1,0.1-0.2c0-0.1,0-0.3-0.1-0.4c-0.8-1.1-1.5-2.3-2.3-3.4c-0.1-0.2-0.6-0.2-0.8-0.3
				c-0.4,0-0.8,0.1-1.1,0.2c-0.3,0.1-0.6,0.3-0.8,0.6c0,0.1-0.1,0.1-0.1,0.2C515.5,334,515.6,334.1,515.7,334.2L515.7,334.2z"/>
		</g>
	</g>
	<g>
		<g>
			<path class="st3" d="M531.9,334.3c-2.6-3.5-2.9-8.3-0.9-12.1c0.3-0.6-1-0.6-1.2-0.5c-0.6,0.1-1.4,0.3-1.7,0.9
				c-2.1,4.1-1.6,9.1,1.1,12.8C529.7,336.1,532.5,335.1,531.9,334.3L531.9,334.3z"/>
		</g>
	</g>
	<g>
		<g>
			<path class="st3" d="M537.7,332.1c-0.3-2.5,0.1-5.1,1.1-7.3c0.3-0.6-0.3-1.2-0.9-1.2c-0.7-0.1-1.6,0.2-1.9,0.9
				c-1.2,2.7-1.6,5.6-1.2,8.4c0,0.3,0.4,0.5,0.6,0.6c0.3,0.1,0.8,0.1,1.1,0C537.2,333.3,537.8,332.8,537.7,332.1L537.7,332.1z"/>
		</g>
	</g>
	<g>
		<g>
			<path class="st3" d="M543.3,330.3c1.2-2.2,2.3-4.5,3.5-6.7c0.1-0.2,0.2-0.4,0-0.6c-0.2-0.2-0.5-0.2-0.8-0.2
				c-0.4,0-0.8,0.1-1.1,0.2c-0.3,0.1-0.6,0.3-0.8,0.5c-1.2,2.2-2.3,4.5-3.5,6.7c-0.1,0.2-0.2,0.4,0,0.6c0.2,0.2,0.5,0.2,0.8,0.2
				c0.4,0,0.8-0.1,1.1-0.2C542.8,330.7,543.2,330.6,543.3,330.3L543.3,330.3z"/>
		</g>
	</g>
	<g>
		<g>
			<path class="st3" d="M60.5,393.8c0.1,0,0.2,0.1,0.3,0.1c0.1,0,0.1,0,0,0c0.1,0,0.1,0,0.2,0.1c0.2,0.1,0.4,0.2,0.7,0.3
				c0.5,0.2,0.9,0.4,1.4,0.7c0.2,0.1,0.4,0.2,0.6,0.4c0.1,0.1,0.2,0.1,0.3,0.2c0.1,0.1-0.1,0,0.1,0c0,0,0.1,0.1,0.1,0.1
				c0.4,0.3,0.8,0.6,1.2,1c0.5,0.4,1.4,0.3,1.9,0c0.3-0.1,1.3-0.7,0.8-1.2c-1.6-1.5-3.6-2.6-5.8-3.2c-0.3-0.1-0.8,0-1.1,0.1
				c-0.3,0.1-0.7,0.2-1,0.5c-0.2,0.2-0.4,0.4-0.3,0.6C60,393.6,60.3,393.7,60.5,393.8L60.5,393.8z"/>
		</g>
	</g>
	<g>
		<g>
			<path class="st3" d="M68.9,390.7c1.7,1.8,2.5,4.3,2.2,6.7c0,0.2,0.5,0.2,0.5,0.2c0.3,0,0.7-0.1,1.1-0.1c0.4-0.1,1.3-0.3,1.3-0.8
				c0.3-2.5-0.6-5-2.4-6.9c-0.1-0.1-0.6-0.1-0.7-0.1c-0.4,0-0.8,0.1-1.1,0.3C69.5,390,68.5,390.3,68.9,390.7L68.9,390.7z"/>
		</g>
	</g>
	<g>
		<g>
			<path class="st3" d="M276.8,444.2c2,1.8,3.9,3.6,5.9,5.4c0.5,0.4,1.4,0.2,1.9,0c0.3-0.1,1.3-0.7,0.8-1.1c-2-1.8-3.9-3.6-5.9-5.4
				c-0.5-0.4-1.4-0.2-1.9,0C277.3,443.2,276.3,443.8,276.8,444.2L276.8,444.2z"/>
		</g>
	</g>
	<g>
		<g>
			<path class="st3" d="M294.5,448.6c-0.4-4.9,0.4-9.9,2.3-14.5c0.3-0.6-0.9-0.7-1.3-0.7c-0.6,0.1-1.4,0.4-1.6,1
				c-2,4.7-2.7,9.8-2.3,14.9C291.7,450.4,294.6,449.8,294.5,448.6L294.5,448.6z"/>
		</g>
	</g>
	<g>
		<g>
			<path class="st3" d="M344.9,367c2.7,4.1,5.3,8.3,8,12.4c0.6,0.9,3.4-0.1,2.7-1.2c-2.7-4.1-5.3-8.3-8-12.4
				C347,364.9,344.2,365.9,344.9,367L344.9,367z"/>
		</g>
	</g>
	<g>
		<g>
			<path class="st3" d="M364.6,374.2c0.8-4.5,1.5-9,2.3-13.6c0.2-1.2-2.7-0.7-2.9,0.3c-0.8,4.5-1.5,9-2.3,13.6
				C361.5,375.7,364.4,375.2,364.6,374.2L364.6,374.2z"/>
		</g>
	</g>
	<g>
		<g>
			<path class="st3" d="M375.9,372.1c1.5-3,3-6,4.5-9c0.3-0.6-0.3-0.9-0.8-0.9c-0.6,0-1.6,0.2-1.9,0.8c-1.5,3-3,6-4.5,9
				c-0.3,0.6,0.3,0.9,0.8,0.9C374.5,373,375.6,372.7,375.9,372.1L375.9,372.1z"/>
		</g>
	</g>
	<g>
		<g>
			<path class="st3" d="M386.1,377.5c1.1-1.9,2.3-3.8,3.4-5.7c0.1-0.2-0.1-0.3-0.3-0.4c-0.3-0.1-0.7-0.1-0.9,0
				c-0.6,0.1-1.3,0.3-1.7,0.9c-1.1,1.9-2.3,3.8-3.4,5.7c-0.1,0.2,0.1,0.3,0.3,0.4c0.3,0.1,0.7,0.1,0.9,0
				C385,378.3,385.8,378.1,386.1,377.5L386.1,377.5z"/>
		</g>
	</g>
	<g>
		<g>
			<path class="st3" d="M261.3,293.5c0.8,1.5,1.5,3,2.3,4.5c0.1,0.3,0.6,0.4,0.8,0.4c0.4,0.1,0.8,0,1.1-0.2c0.3-0.2,0.6-0.4,0.7-0.7
				c0.1-0.3,0.1-0.5-0.1-0.8c-0.8-1.5-1.5-3-2.3-4.5c-0.1-0.3-0.6-0.4-0.8-0.4c-0.4-0.1-0.8,0-1.1,0.2c-0.3,0.2-0.6,0.4-0.7,0.7
				C261.1,293,261.1,293.2,261.3,293.5L261.3,293.5z"/>
		</g>
	</g>
	<g>
		<g>
			<path class="st3" d="M271.3,286.3c0,3.4,0,6.8,0,10.2c0,0.7,0.7,0.8,1.3,0.8c0.5,0,1.6-0.4,1.6-1.1c0-3.4,0-6.8,0-10.2
				c0-0.7-0.7-0.8-1.3-0.8C272.4,285.3,271.3,285.6,271.3,286.3L271.3,286.3z"/>
		</g>
	</g>
	<g>
		<g>
			<path class="st3" d="M472.2,868.2c4,2.2,7,5.8,8.4,10c0.2,0.6,3.1-0.2,2.9-0.8c-1.5-4.3-4.6-8-8.6-10.2c-0.5-0.3-1.4,0-1.9,0.2
				C472.9,867.4,471.8,867.9,472.2,868.2L472.2,868.2z"/>
		</g>
	</g>
	<g>
		<g>
			<path class="st3" d="M489.3,877.5c-0.7-4.8-1.4-9.7-2.1-14.5c-0.1-0.5-3,0.1-2.9,0.8c0.7,4.8,1.4,9.7,2.1,14.5
				C486.5,878.8,489.4,878.2,489.3,877.5L489.3,877.5z"/>
		</g>
	</g>
	<g>
		<g>
			<path class="st3" d="M497.9,873.3c0-5.5,0-11.1,0-16.6c0-0.9-2.9-0.3-2.9,0.8c0,5.5,0,11.1,0,16.6
				C495,875,497.9,874.4,497.9,873.3L497.9,873.3z"/>
		</g>
	</g>
	<g>
		<g>
			<path class="st3" d="M607.9,765.7c0-3.5,0-6.9,0-10.4c0-0.7-0.7-1-1.4-1c-0.6,0-1.6,0.5-1.6,1.2c0,3.5,0,6.9,0,10.4
				c0,0.7,0.7,1,1.4,1C606.9,766.9,607.9,766.4,607.9,765.7L607.9,765.7z"/>
		</g>
	</g>
	<g>
		<g>
			<path class="st3" d="M620.3,765.6c0-4.1,0-8.3,0-12.4c0-0.7-0.7-0.7-1.3-0.7c-0.4,0-1.6,0.4-1.6,1c0,4.1,0,8.3,0,12.4
				c0,0.7,0.7,0.7,1.3,0.7C619.1,766.6,620.3,766.3,620.3,765.6L620.3,765.6z"/>
		</g>
	</g>
	<g>
		<g>
			<path class="st3" d="M70.1,797.6c4.9,2.6,9.8,5.3,14.7,7.9c0.6,0.3,1.5,0.1,2.1-0.3c0.4-0.3,0.8-0.9,0.2-1.2
				c-4.9-2.6-9.8-5.3-14.7-7.9c-0.6-0.3-1.5-0.1-2.1,0.3C70,796.6,69.5,797.2,70.1,797.6L70.1,797.6z"/>
		</g>
	</g>
	<g>
		<g>
			<path class="st3" d="M88,795.4c0.7,2.8,1.4,5.5,2.1,8.3c0.1,0.5,1.3,0.2,1.6,0.1c0.3-0.1,1.4-0.4,1.3-0.9
				c-0.7-2.8-1.4-5.5-2.1-8.3c-0.1-0.5-1.3-0.2-1.6-0.1C89,794.6,87.9,794.9,88,795.4L88,795.4z"/>
		</g>
	</g>
	<g>
		<g>
			<path class="st3" d="M294,855.5c3.3,2.9,6.6,5.9,9.9,8.8c0.4,0.4,1.4,0.1,1.9-0.1c0.2-0.1,1.3-0.6,0.8-1
				c-3.3-2.9-6.6-5.9-9.9-8.8c-0.4-0.4-1.4-0.1-1.9,0.1C294.6,854.6,293.5,855.1,294,855.5L294,855.5z"/>
		</g>
	</g>
	<g>
		<g>
			<path class="st3" d="M311.2,862.9c0-4.1,0-8.3,0-12.4c0-0.6-1.3-0.4-1.6-0.3c-0.5,0.1-1.3,0.5-1.3,1.1c0,4.1,0,8.3,0,12.4
				c0,0.6,1.3,0.4,1.6,0.3C310.5,863.9,311.2,863.6,311.2,862.9L311.2,862.9z"/>
		</g>
	</g>
	<g>
		<g>
			<path class="st3" d="M362,530.2c2.1,2.1,4.2,4.1,6.3,6.2c0.4,0.4,1.4,0.2,1.9,0c0.3-0.1,1.2-0.6,0.8-1.1
				c-2.1-2.1-4.2-4.1-6.3-6.2c-0.4-0.4-1.4-0.2-1.9,0C362.5,529.3,361.6,529.8,362,530.2L362,530.2z"/>
		</g>
	</g>
	<g>
		<g>
			<path class="st3" d="M371.4,533.4c0-6.2,0-12.4,0-18.7c0-1.5-2.9-1-2.9,0.2c0,6.2,0,12.4,0,18.7
				C368.5,535.1,371.4,534.6,371.4,533.4L371.4,533.4z"/>
		</g>
	</g>
	<g>
		<g>
			<path class="st3" d="M377.7,528.9c-0.8-4.2-0.1-8.5,1.9-12.3c0.3-0.6-1-0.5-1.2-0.5c-0.6,0.1-1.3,0.3-1.7,0.9
				c-2.1,3.8-2.7,8.4-1.9,12.6C375,530.6,377.9,529.9,377.7,528.9L377.7,528.9z"/>
		</g>
	</g>
	<g>
		<g>
			<path class="st3" d="M512.3,448c-1.9-2.1-2.6-5.3-1.9-8c0.1-0.5-0.9-0.4-1.2-0.3c-0.4,0.1-0.8,0.2-1.1,0.3
				c-0.2,0.1-0.5,0.3-0.6,0.5c-0.8,3-0.1,6.3,2,8.6c0.1,0.1,0.6,0.1,0.7,0.1c0.4,0,0.8-0.1,1.1-0.2
				C511.7,448.7,512.7,448.4,512.3,448L512.3,448z"/>
		</g>
	</g>
	<g>
		<g>
			<path class="st3" d="M518.7,444.2c0-3.5,0-6.9,0-10.4c0-0.7-0.7-1-1.3-1c-0.6,0-1.6,0.5-1.6,1.2c0,3.5,0,6.9,0,10.4
				c0,0.7,0.7,1,1.3,1C517.7,445.3,518.7,444.9,518.7,444.2L518.7,444.2z"/>
		</g>
	</g>
	<g>
		<g>
			<path class="st3" d="M188.8,504.1c-2.1-4.8-4.2-9.7-6.2-14.5c-0.3-0.7-1.1-0.9-1.7-0.7c-0.5,0.1-1.5,0.8-1.2,1.4
				c2.1,4.8,4.2,9.7,6.2,14.5c0.3,0.7,1.1,0.9,1.7,0.7C188.2,505.4,189.1,504.7,188.8,504.1L188.8,504.1z"/>
		</g>
	</g>
	<g>
		<g>
			<path class="st3" d="M195.1,500.2c0-5.5,0-11.1,0-16.6c0-1.4-2.9-0.8-2.9,0.3c0,5.5,0,11.1,0,16.6
				C192.2,501.8,195.1,501.3,195.1,500.2L195.1,500.2z"/>
		</g>
	</g>
	<g>
		<g>
			<path class="st3" d="M200.8,491.6c0.7-2.1,1.4-4.1,2.1-6.2c0.2-0.5-0.9-0.4-1.2-0.4c-0.4,0.1-0.8,0.2-1.1,0.4
				c-0.2,0.1-0.5,0.3-0.6,0.5c-0.7,2.1-1.4,4.1-2.1,6.2c-0.2,0.5,0.9,0.4,1.2,0.4c0.4-0.1,0.8-0.2,1.1-0.4
				C200.4,492,200.7,491.8,200.8,491.6L200.8,491.6z"/>
		</g>
	</g>
	<g>
		<g>
			<path class="st3" d="M47.7,203.6c0.7-0.7,1.4-1.4,2.1-2.1c0.1-0.1,0.2-0.4,0-0.5c-0.1-0.1-0.2-0.1-0.3-0.1c-0.1,0-0.3-0.1-0.4,0
				c-0.4,0-0.8,0.1-1.1,0.2c-0.1,0.1-0.2,0.1-0.3,0.2c-0.2,0.1-0.3,0.2-0.5,0.4c-0.7,0.7-1.4,1.4-2.1,2.1c-0.1,0.1-0.2,0.4,0,0.5
				c0.1,0.1,0.2,0.1,0.3,0.1c0.1,0,0.3,0.1,0.4,0c0.4,0,0.8-0.1,1.1-0.2c0.1-0.1,0.2-0.1,0.3-0.2C47.4,203.9,47.5,203.8,47.7,203.6
				L47.7,203.6z"/>
		</g>
	</g>
	<g>
		<g>
			<path class="st3" d="M51.9,201.4c0-3.5,0-6.9,0-10.4c0-0.7-0.7-0.8-1.3-0.8c-0.5,0-1.6,0.4-1.6,1.1c0,3.5,0,6.9,0,10.4
				c0,0.7,0.7,0.8,1.3,0.8C50.8,202.5,51.9,202.1,51.9,201.4L51.9,201.4z"/>
		</g>
	</g>
	<g>
		<g>
			<path class="st3" d="M58.2,192.9c0-2.1,0-4.1,0-6.2c0-0.2-0.4-0.3-0.5-0.4c-0.3-0.1-0.8,0-1.1,0.1c-0.5,0.1-1.3,0.4-1.3,1
				c0,2.1,0,4.1,0,6.2c0,0.2,0.4,0.3,0.5,0.4c0.3,0.1,0.8,0,1.1-0.1C57.4,193.8,58.2,193.5,58.2,192.9L58.2,192.9z"/>
		</g>
	</g>
	<g>
		<g>
			<path class="st3" d="M390.1,153.5c-1.4-4.1-2.8-8.3-4.1-12.4c-0.2-0.7-3.1,0.1-2.9,0.8c1.4,4.1,2.8,8.3,4.1,12.4
				C387.4,155,390.3,154.1,390.1,153.5L390.1,153.5z"/>
		</g>
	</g>
	<g>
		<g>
			<path class="st3" d="M388.5,155c1.7,0,2.2-2.3,0.2-2.3C387,152.7,386.5,155,388.5,155L388.5,155z"/>
		</g>
	</g>
	<g>
		<g>
			<path class="st3" d="M402.1,151.4c-1-1.1-1.6-2.2-1.9-3.7c-0.3-1.3-0.1-2.7,0.3-3.9c0.3-0.7-0.2-1.2-0.9-1.3
				c-0.7-0.1-1.6,0.2-1.9,0.9c-1.2,3.1-0.6,6.8,1.7,9.3c0.5,0.5,1.3,0.6,2,0.3C401.9,152.7,402.7,151.9,402.1,151.4L402.1,151.4z"/>
		</g>
	</g>
	<g>
		<g>
			<path class="st3" d="M400.5,152.4c0.5,0,1.6-0.2,1.9-0.7c0.3-0.5-0.3-0.6-0.7-0.6c-0.5,0-1.6,0.2-1.9,0.7
				C399.4,152.4,400,152.4,400.5,152.4L400.5,152.4z"/>
		</g>
	</g>
	<g>
		<g>
			<path class="st3" d="M570.9,41.3c-1.4-4.1-2.8-8.3-4.2-12.4c-0.3-1-3.2-0.1-2.9,0.8c1.4,4.1,2.8,8.3,4.2,12.4
				C568.3,43.1,571.2,42.3,570.9,41.3L570.9,41.3z"/>
		</g>
	</g>
	<g>
		<g>
			<path class="st3" d="M578.8,41.5c0-10.4,0-20.7,0-31.1c0-0.8-2.9-0.3-2.9,0.8c0,10.4,0,20.7,0,31.1
				C575.9,43.1,578.8,42.5,578.8,41.5L578.8,41.5z"/>
		</g>
	</g>
	<g>
		<g>
			<path class="st3" d="M709.5,176.3c-0.7-3.5-1.4-6.9-2.1-10.4c-0.2-1-3.1-0.3-2.9,0.8c0.7,3.5,1.4,6.9,2.1,10.4
				C706.8,178.1,709.7,177.4,709.5,176.3L709.5,176.3z"/>
		</g>
	</g>
	<g>
		<g>
			<path class="st3" d="M725.8,178.9c1.5-4.8,2.9-9.6,4.4-14.4c0.5-1.6-2.4-1.7-2.8-0.4c-1.5,4.8-2.9,9.6-4.4,14.4
				C722.5,180.1,725.4,180.2,725.8,178.9L725.8,178.9z"/>
		</g>
	</g>
	<g>
		<g>
			<path class="st3" d="M810.8,220.7c2.1,4.1,4.2,8.3,6.3,12.4c0.3,0.6,1.5,0.5,2,0.2c0.6-0.3,1-0.9,0.7-1.5
				c-2.1-4.1-4.2-8.3-6.3-12.4c-0.3-0.6-1.5-0.5-2-0.2C810.8,219.5,810.5,220.1,810.8,220.7L810.8,220.7z"/>
		</g>
	</g>
	<g>
		<g>
			<path class="st3" d="M813.4,220.9c0.1-0.1,0.2-0.2,0.3-0.3c0.1-0.1,0.1-0.1,0,0c0.1,0,0.1-0.1,0.2-0.1c0.1,0,0.5-0.2,0.1-0.1
				c0.1-0.1,0.3-0.1,0.4-0.2c-0.4,0.2,0,0,0.1,0c0.2,0,0.1,0-0.1,0c0.1,0,0.1,0,0.2,0c0.1,0,0.5,0,0.2,0c0.1,0,0.3,0,0.4,0
				c0.1,0,0.5,0,0.2,0c0.1,0,0.3,0,0.4,0.1c0.1,0,0.3,0.1,0.4,0.1c0.1,0,0.1,0,0.2,0.1c-0.1,0-0.1,0,0,0c0.5,0.2,1.1,0.4,1.5,0.7
				c1.8,1.1,3.2,3.3,2.6,5.5c-0.3,1,2.7,0.6,2.9-0.4c0.5-2.1-0.4-4.2-2-5.6c-1.8-1.6-4.2-2.3-6.5-2c-1.5,0.2-3,0.8-4.1,1.8
				c-0.4,0.4-0.3,0.9,0.3,1C812,221.6,812.9,221.4,813.4,220.9L813.4,220.9z"/>
		</g>
	</g>
	<g>
		<g>
			<path class="st3" d="M714.9,712.6c1.4,1.4,2.8,2.8,4.2,4.1c0.2,0.2,0.5,0.4,0.8,0.4c0.4,0,0.8,0,1.1-0.2c0.3-0.2,0.6-0.4,0.7-0.7
				c0.1-0.2,0.2-0.6-0.1-0.8c-1.4-1.4-2.8-2.8-4.2-4.1c-0.2-0.2-0.5-0.4-0.8-0.4c-0.4,0-0.8,0-1.1,0.2c-0.3,0.1-0.6,0.4-0.7,0.7
				C714.8,712.1,714.7,712.4,714.9,712.6L714.9,712.6z"/>
		</g>
	</g>
	<g>
		<g>
			<path class="st3" d="M718,711.7c2.1-4.1,4.3-8.2,6.4-12.3c0.2-0.5-1-0.3-1.2-0.3c-0.5,0.1-1.4,0.3-1.7,0.8
				c-2.1,4.1-4.3,8.2-6.4,12.3c-0.2,0.5,1,0.3,1.2,0.3C716.8,712.4,717.7,712.2,718,711.7L718,711.7z"/>
		</g>
	</g>
	<g>
		<g>
			<path class="st3" d="M657.3,536.2c2.8,2.1,5.5,4.2,8.3,6.2c0.9,0.7,3.5-0.6,2.3-1.6c-2.8-2.1-5.5-4.2-8.3-6.2
				C658.6,534,656,535.3,657.3,536.2L657.3,536.2z"/>
		</g>
	</g>
	<g>
		<g>
			<path class="st3" d="M676,537.4c-2.1-5.2-2.7-11-1.6-16.5c0.2-0.9-2.7-0.4-2.9,0.4c-1.1,5.7-0.6,11.5,1.6,16.9
				C673.4,539,676.3,538.1,676,537.4L676,537.4z"/>
		</g>
	</g>
	<g>
		<g>
			<path class="st3" d="M682.6,539.6c0-4.1,0-8.3,0-12.4c0-0.7-0.7-1-1.3-0.9c-0.5,0-1.6,0.4-1.6,1.1c0,4.1,0,8.3,0,12.4
				c0,0.7,0.7,1,1.3,0.9C681.5,540.7,682.6,540.3,682.6,539.6L682.6,539.6z"/>
		</g>
	</g>
	<g>
		<g>
			<path class="st3" d="M1485.3,557.8c1.5-6.8,2.9-13.5,4.4-20.3c0.3-1.4-2.7-1-2.9,0.3c-1.5,6.8-2.9,13.5-4.4,20.3
				C1482.1,559.4,1485,559.1,1485.3,557.8L1485.3,557.8z"/>
		</g>
	</g>
	<g>
		<g>
			<path class="st3" d="M1479.6,556.6c0.1-6.1-1-12.1-3.2-17.7c-0.3-0.7-3.1,0.2-2.9,0.8c2.2,5.7,3.3,11.7,3.2,17.7
				C1476.6,557.9,1479.5,557.5,1479.6,556.6L1479.6,556.6z"/>
		</g>
	</g>
	<g>
		<g>
			<path class="st3" d="M1471.9,556.6c-0.6-4.5-2-8.8-4.1-12.7c-0.3-0.6-1.5-0.4-2-0.2c-0.6,0.3-1,0.8-0.7,1.4
				c2.1,3.8,3.4,8,3.9,12.3c0.1,0.7,1.2,0.6,1.7,0.5C1471.3,557.8,1472,557.3,1471.9,556.6L1471.9,556.6z"/>
		</g>
	</g>
	<g>
		<g>
			<path class="st3" d="M1587.7,251.9c-4.8,3.7-8.9,8.3-12,13.6c-0.3,0.5,1,0.4,1.2,0.3c0.6-0.1,1.4-0.3,1.7-0.8
				c2.9-5,6.8-9.4,11.4-12.9c0.4-0.3,0.4-0.6-0.2-0.7C1589.2,251.3,1588.2,251.5,1587.7,251.9L1587.7,251.9z"/>
		</g>
	</g>
	<g>
		<g>
			<path class="st3" d="M1574,248.7c-4.1,3.4-6.8,8.3-7.3,13.7c-0.1,1.5,2.8,1.1,2.9-0.2c0.5-4.7,2.7-9.1,6.3-12.1
				c0.5-0.4,0.7-1.1,0.1-1.5C1575.5,248.1,1574.5,248.2,1574,248.7L1574,248.7z"/>
		</g>
	</g>
	<g>
		<g>
			<path class="st3" d="M1563.5,247.2c-3.4,3.2-5.2,7.7-5.2,12.3c0,0.6,1.3,0.5,1.7,0.4c0.6-0.2,1.3-0.5,1.2-1.2
				c-0.1-4.1,1.6-8.2,4.6-11c0.4-0.4,0.3-0.9-0.3-1.1C1564.9,246.5,1564,246.7,1563.5,247.2L1563.5,247.2z"/>
		</g>
	</g>
	<g>
		<g>
			<path class="st3" d="M1295.9,41.5c-2.7,3.8-5.3,7.5-8,11.3c-1.1,1.5,1.6,2,2.4,0.9c2.7-3.8,5.3-7.5,8-11.3
				C1299.4,40.9,1296.7,40.3,1295.9,41.5L1295.9,41.5z"/>
		</g>
	</g>
	<g>
		<g>
			<path class="st3" d="M1283.2,42.2c0,4.5,0,9,0,13.6c0,0.8,2.9,0.3,2.9-0.8c0-4.5,0-9,0-13.6C1286.1,40.6,1283.2,41.1,1283.2,42.2
				L1283.2,42.2z"/>
		</g>
	</g>
	<g>
		<g>
			<path class="st3" d="M1273,40.8c-0.3,3.1,0.1,6.4,1.1,9.3c0.2,0.7,1.1,0.9,1.7,0.7c0.6-0.2,1.4-0.7,1.2-1.5
				c-1-2.8-1.3-5.8-1.1-8.8C1276.1,39.1,1273.1,39.4,1273,40.8L1273,40.8z"/>
		</g>
	</g>
	<g>
		<g>
			<path class="st3" d="M1292.4,272.6c-1.8,1.9-3.7,3.8-5.5,5.8c-0.1,0.1-0.2,0.4,0,0.5c0.2,0.2,0.6,0.2,0.8,0.2
				c0.7,0,1.4-0.2,1.9-0.8c1.8-1.9,3.7-3.8,5.5-5.8c0.1-0.1,0.2-0.4,0-0.5c-0.2-0.2-0.6-0.2-0.8-0.2
				C1293.6,271.9,1292.8,272.1,1292.4,272.6L1292.4,272.6z"/>
		</g>
	</g>
	<g>
		<g>
			<path class="st3" d="M1283.2,271.4c-1.2,2.2-1.6,4.8-1.2,7.2c0,0.2,0.4,0.4,0.6,0.4c0.3,0.1,0.8,0,1.1,0c0.5-0.1,1.4-0.5,1.2-1.2
				c-0.4-2.2-0.1-4.4,1-6.3c0.3-0.6-0.3-0.9-0.8-0.9C1284.5,270.5,1283.6,270.8,1283.2,271.4L1283.2,271.4z"/>
		</g>
	</g>
	<g>
		<g>
			<path class="st3" d="M1204.6,113.9c-0.4-1.1-0.8-2.3-1.2-3.4c-0.2-0.7-1.1-0.8-1.7-0.6c-0.3,0.1-0.7,0.3-0.9,0.6
				c-0.2,0.2-0.3,0.5-0.2,0.8c0.4,1.1,0.8,2.3,1.2,3.4c0.2,0.7,1.1,0.8,1.7,0.6c0.3-0.1,0.7-0.3,0.9-0.6
				C1204.5,114.5,1204.7,114.2,1204.6,113.9L1204.6,113.9z"/>
		</g>
	</g>
	<g>
		<g>
			<path class="st3" d="M1191.8,101c1.3,3.6,0.5,8-2.3,10.7c-0.4,0.4-0.3,0.9,0.3,1c0.6,0.1,1.6-0.1,2-0.5c3.1-3,4.4-7.8,2.9-11.9
				C1194.3,99.2,1191.4,100.1,1191.8,101L1191.8,101z"/>
		</g>
	</g>
	<g>
		<g>
			<path class="st3" d="M1182.6,104.6c0.2,0.2,0.3,0.4,0.5,0.6c0,0-0.1-0.1-0.1-0.1c0.5,0.9,0.8,1.9,0.8,2.9c0-0.1,0-0.1,0-0.2
				c0,0.3-0.1,0.7-0.2,1c-0.2,0.6,0.9,0.5,1.2,0.5c0.4-0.1,0.8-0.2,1.1-0.4c0.2-0.1,0.5-0.3,0.6-0.5c0.5-1.7,0-3.5-1.1-4.8
				c-0.2-0.2-0.6-0.2-0.8-0.2c-0.4,0-0.8,0.1-1.1,0.2C1183.1,103.7,1182.2,104.1,1182.6,104.6L1182.6,104.6z"/>
		</g>
	</g>
	<g>
		<g>
			<path class="st3" d="M1718.8,619.5c-4.1,3.4-8.2,6.9-12.4,10.3c-0.5,0.4-0.3,0.8,0.3,0.9c0.7,0.1,1.5-0.1,2-0.5
				c4.1-3.4,8.2-6.9,12.4-10.3c0.5-0.4,0.3-0.8-0.3-0.9C1720.2,618.8,1719.4,619.1,1718.8,619.5L1718.8,619.5z"/>
		</g>
	</g>
	<g>
		<g>
			<path class="st3" d="M1705,619.9c0,3,0,6,0,9c0,0.7,0.7,0.8,1.3,0.7c0.5-0.1,1.6-0.4,1.6-1c0-3,0-6,0-9c0-0.7-0.7-0.8-1.3-0.7
				C1706.2,618.9,1705,619.3,1705,619.9L1705,619.9z"/>
		</g>
	</g>
	<g>
		<g>
			<path class="st3" d="M1694.8,620.2c0,2.3,0,4.5,0,6.8c0,0.2,0.4,0.3,0.5,0.3c0.3,0.1,0.8,0,1.1-0.1c0.5-0.1,1.3-0.4,1.3-1
				c0-2.3,0-4.5,0-6.8c0-0.2-0.4-0.3-0.5-0.3c-0.3-0.1-0.8,0-1.1,0.1C1695.6,619.3,1694.8,619.6,1694.8,620.2L1694.8,620.2z"/>
		</g>
	</g>
	<g>
		<g>
			<path class="st3" d="M1290,847.1c-1.5,1.9-3,3.8-4.5,5.7c-0.4,0.5,0.4,0.6,0.7,0.6c0.4,0,0.8-0.1,1.1-0.2
				c0.3-0.1,0.6-0.2,0.8-0.5c1.5-1.9,3-3.8,4.5-5.7c0.4-0.5-0.4-0.6-0.7-0.6c-0.4,0-0.8,0.1-1.1,0.2
				C1290.5,846.7,1290.2,846.8,1290,847.1L1290,847.1z"/>
		</g>
	</g>
	<g>
		<g>
			<path class="st3" d="M1282,841.6c-0.4,2.3-0.8,4.5-1.1,6.8c-0.1,0.6,0.8,0.6,1.2,0.6c0.4-0.1,0.8-0.2,1.1-0.4
				c0.2-0.1,0.5-0.3,0.6-0.6c0.4-2.3,0.8-4.5,1.1-6.8c0.1-0.6-0.8-0.6-1.2-0.6c-0.4,0.1-0.8,0.2-1.1,0.4
				C1282.4,841.2,1282.1,841.4,1282,841.6L1282,841.6z"/>
		</g>
	</g>
	<g>
		<g>
			<path class="st3" d="M1269.4,840.7c0.4,2.3,0.8,4.5,1.2,6.8c0,0.2,0.4,0.2,0.5,0.2c0.3,0,0.7,0,1.1-0.1c0.3-0.1,0.7-0.2,1-0.4
				c0.1-0.1,0.4-0.3,0.3-0.5c-0.4-2.3-0.8-4.5-1.2-6.8c0-0.2-0.4-0.2-0.5-0.2c-0.3,0-0.7,0-1.1,0.1c-0.3,0.1-0.7,0.2-1,0.4
				C1269.6,840.4,1269.4,840.5,1269.4,840.7L1269.4,840.7z"/>
		</g>
	</g>
	<g>
		<g>
			<path class="st3" d="M1674.1,956.9c-4.5,1.9-8.6,4.9-11.7,8.7c-0.4,0.5-0.3,1,0.3,1.2c0.6,0.2,1.6,0,2-0.5
				c2.9-3.4,6.4-6.1,10.6-7.9c0.5-0.2,1.2-0.8,0.7-1.3C1675.6,956.5,1674.6,956.7,1674.1,956.9L1674.1,956.9z"/>
		</g>
	</g>
	<g>
		<g>
			<path class="st3" d="M1659,965.5c-0.4-4.5-0.7-9.1-1.1-13.6c-0.1-0.7-1.2-0.7-1.7-0.6c-0.7,0.2-1.2,0.7-1.2,1.4
				c0.4,4.5,0.7,9.1,1.1,13.6c0.1,0.7,1.2,0.7,1.7,0.6C1658.5,966.7,1659.1,966.2,1659,965.5L1659,965.5z"/>
		</g>
	</g>
	<g>
		<g>
			<path class="st3" d="M1649.6,971.2c-1.7-2.6-2.5-5.7-2.2-8.8c0.1-1.5-2.8-1.1-2.9,0.2c-0.3,3.5,0.5,7,2.4,9.9
				C1647.6,973.6,1650.4,972.5,1649.6,971.2L1649.6,971.2z"/>
		</g>
	</g>
	<g>
		<g>
			<path class="st3" d="M1788.5,750c-0.4,1.3-0.8,2.4-1.5,3.6c-0.3,0.6-0.7,1.1-1.1,1.6c-0.4,0.5-0.7,0.9-1.2,1.4
				c-0.2,0.2-0.3,0.4-0.3,0.7c0.1,0.2,0.4,0.4,0.6,0.4c0.7,0.1,1.6-0.1,2-0.5c2.1-2.1,3.6-4.6,4.4-7.5c0.2-0.6-0.9-0.7-1.3-0.7
				C1789.6,749,1788.7,749.3,1788.5,750L1788.5,750z"/>
		</g>
	</g>
	<g>
		<g>
			<path class="st3" d="M1789.3,749.4c-4.5,3.4-8.3,7.7-10.9,12.7c-0.7,1.3,2.2,1,2.7,0.1c2.4-4.6,5.8-8.7,10-11.9
				c0.4-0.3,0.8-0.8,0.2-1.2C1790.8,748.8,1789.7,749,1789.3,749.4L1789.3,749.4z"/>
		</g>
	</g>
	<g>
		<g>
			<path class="st3" d="M1769.4,749.1c0.5,3.4,0.9,6.8,1.4,10.1c0.1,0.5,3-0.1,2.9-0.8c-0.5-3.4-0.9-6.8-1.4-10.1
				C1772.2,747.8,1769.3,748.4,1769.4,749.1L1769.4,749.1z"/>
		</g>
	</g>
	<g>
		<g>
			<path class="st3" d="M1548.9,734.9c-1.5,2.3-3,4.5-4.5,6.8c-0.4,0.6,0.3,1.1,0.9,1.1c0.7,0.1,1.5-0.2,1.9-0.9
				c1.5-2.3,3-4.5,4.5-6.8c0.4-0.6-0.3-1.1-0.9-1.1C1550,734,1549.3,734.3,1548.9,734.9L1548.9,734.9z"/>
		</g>
	</g>
	<g>
		<g>
			<path class="st3" d="M1551.5,734.6c-4.1-1.2-9.1,0.4-11.7,3.8c-0.4,0.5,0.3,0.7,0.7,0.7c0.6,0,1.6-0.2,1.9-0.7
				c0.4-0.6,0.9-1.1,1.5-1.5c0.4-0.3,0.5-0.3,0.8-0.5c0.1,0,0.2-0.1,0.2-0.1c0.1,0,0.3-0.1,0.1,0c0.2-0.1,0.4-0.2,0.5-0.2
				c0,0,0.3-0.1,0.1,0c-0.2,0.1,0.1,0,0.1,0c0.1,0,0.2-0.1,0.3-0.1c0.1,0,0.1,0,0,0c0.2,0,0.4-0.1,0.6-0.1c0,0,0.3,0,0.1,0
				c-0.2,0,0.2,0,0.2,0c0.4,0,0.5,0,0.9,0c0.4,0,0.7,0.1,1.1,0.2c0.7,0.2,1.4,0,2-0.3C1551.5,735.4,1552.2,734.8,1551.5,734.6
				L1551.5,734.6z"/>
		</g>
	</g>
	<g>
		<g>
			<path class="st3" d="M1532,731.9c0,2.3,0,4.5,0,6.8c0,0.6,0.7,0.8,1.3,0.7c0.4-0.1,0.8-0.2,1.1-0.4c0.2-0.1,0.5-0.4,0.5-0.6
				c0-2.3,0-4.5,0-6.8c0-0.6-0.7-0.8-1.3-0.7c-0.4,0.1-0.8,0.2-1.1,0.4C1532.3,731.4,1532,731.6,1532,731.9L1532,731.9z"/>
		</g>
	</g>
	<g>
		<g>
			<path class="st3" d="M1364.9,659.2c-1.8,1.6-3.6,3.2-5.4,4.8c-0.1,0.1-0.4,0.3-0.3,0.5c0.1,0.2,0.4,0.3,0.5,0.3
				c0.4,0,0.7,0,1.1-0.1c0.3-0.1,0.7-0.2,1-0.4c1.8-1.6,3.6-3.2,5.4-4.8c0.1-0.1,0.4-0.3,0.3-0.5c-0.1-0.2-0.4-0.3-0.5-0.3
				c-0.4,0-0.7,0-1.1,0.1C1365.5,658.8,1365.1,658.9,1364.9,659.2L1364.9,659.2z"/>
		</g>
	</g>
	<g>
		<g>
			<path class="st3" d="M1353.3,649.3c0,4.1,0,8.3,0,12.4c0,0.7,0.7,0.7,1.3,0.7c0.4,0,1.6-0.4,1.6-1c0-4.1,0-8.3,0-12.4
				c0-0.7-0.7-0.7-1.3-0.7C1354.5,648.4,1353.3,648.7,1353.3,649.3L1353.3,649.3z"/>
		</g>
	</g>
	<g>
		<g>
			<path class="st3" d="M1404.5,992.8c-2.3,2.6-4.5,5.3-6.8,7.9c-0.4,0.5-0.3,1,0.3,1.2c0.6,0.2,1.6,0,2-0.5
				c2.3-2.6,4.5-5.3,6.8-7.9c0.4-0.5,0.3-1-0.3-1.2C1405.9,992,1405,992.2,1404.5,992.8L1404.5,992.8z"/>
		</g>
	</g>
	<g>
		<g>
			<path class="st3" d="M1388.3,985.2c-0.2,5.8,0.2,11.5,1.3,17.2c0.2,1.2,3.1,0.5,2.9-0.8c-1-5.5-1.4-11.1-1.2-16.7
				C1391.3,983.5,1388.4,984,1388.3,985.2L1388.3,985.2z"/>
		</g>
	</g>
	<g>
		<g>
			<path class="st3" d="M1381.9,998.4c-1.9-4.4-3.3-9-4.2-13.7c-0.1-0.6-3,0.1-2.9,0.8c0.9,4.7,2.3,9.3,4.2,13.7
				C1379.3,999.8,1382.1,998.9,1381.9,998.4L1381.9,998.4z"/>
		</g>
	</g>
	<g>
		<g>
			<path class="st3" d="M1369.8,999.7c0.1-4.6-1.1-9.1-3.5-13c-0.7-1.1-3.4,0-2.7,1.3c2.2,3.6,3.3,7.8,3.2,12
				C1366.8,1001.4,1369.8,1001,1369.8,999.7L1369.8,999.7z"/>
		</g>
	</g>
	<g>
		<g>
			<path class="st3" d="M1225.4,921.9c-0.8,1.1-1.5,2.2-2.3,3.4c-0.1,0.2,0.1,0.3,0.2,0.3c0.3,0.1,0.7,0,0.9,0
				c0.6-0.1,1.3-0.3,1.7-0.8c0.8-1.1,1.5-2.2,2.3-3.4c0.1-0.2-0.1-0.3-0.2-0.3c-0.3-0.1-0.7,0-0.9,0
				C1226.5,921.2,1225.7,921.4,1225.4,921.9L1225.4,921.9z"/>
		</g>
	</g>
	<g>
		<g>
			<path class="st3" d="M1213,913.9c0,3,0,6,0,9c0,0.7,0.7,1.1,1.4,1c0.6-0.1,1.6-0.5,1.6-1.2c0-3,0-6,0-9c0-0.7-0.7-1.1-1.4-1
				C1214,912.8,1213,913.2,1213,913.9L1213,913.9z"/>
		</g>
	</g>
	<g>
		<g>
			<path class="st3" d="M1927.4,962.5c-3.4,1.9-6.7,3.9-10.1,5.8c-0.5,0.3-1.1,0.9-0.7,1.6c0.4,0.6,1.4,0.6,2,0.3
				c3.4-1.9,6.7-3.9,10.1-5.8c0.5-0.3,1.1-0.9,0.7-1.6C1928.9,962.2,1927.9,962.2,1927.4,962.5L1927.4,962.5z"/>
		</g>
	</g>
	<g>
		<g>
			<path class="st3" d="M1909.7,959.2c-0.4,3.8-0.9,7.5-1.3,11.3c-0.1,1.2,2.8,0.7,2.9-0.3c0.4-3.8,0.9-7.5,1.3-11.3
				C1912.7,957.7,1909.8,958.2,1909.7,959.2L1909.7,959.2z"/>
		</g>
	</g>
	<g>
		<g>
			<path class="st3" d="M1879,1065.5c-1,2.7-2.1,5.4-3.1,8c-0.2,0.5,1,0.3,1.1,0.2c0.4-0.1,0.8-0.2,1.1-0.3c0.2-0.1,0.5-0.2,0.6-0.4
				c1-2.7,2.1-5.4,3.1-8c0.2-0.5-1-0.3-1.1-0.2c-0.4,0.1-0.8,0.2-1.1,0.3C1879.4,1065.2,1879,1065.3,1879,1065.5L1879,1065.5z"/>
		</g>
	</g>
	<g>
		<g>
			<path class="st3" d="M1869,1061.9c-1.3,2.2-1.7,4.8-1.1,7.2c0.1,0.6,1.2,0.4,1.6,0.3c0.4-0.1,1.4-0.5,1.3-1.1
				c-0.5-2.2-0.3-4.5,0.9-6.4c0.3-0.6-0.3-0.8-0.8-0.8c-0.4,0-0.8,0.1-1.1,0.2C1869.5,1061.5,1869.2,1061.7,1869,1061.9L1869,1061.9
				z"/>
		</g>
	</g>
	<g>
		<g>
			<path class="st3" d="M1912.2,591.7c-3.5,2.9-6.9,5.9-10.4,8.8c-0.5,0.4,0.4,0.4,0.7,0.4c0.6-0.1,1.4-0.2,1.9-0.7
				c3.5-2.9,6.9-5.9,10.4-8.8c0.5-0.4-0.4-0.4-0.7-0.4C1913.5,591.1,1912.7,591.3,1912.2,591.7L1912.2,591.7z"/>
		</g>
	</g>
	<g>
		<g>
			<path class="st3" d="M1895,583.7c0,4.5,0,9,0,13.6c0,1.4,2.9,1,2.9-0.3c0-4.5,0-9,0-13.6C1897.9,582,1895,582.5,1895,583.7
				L1895,583.7z"/>
		</g>
	</g>
	<g>
		<g>
			<path class="st3" d="M1878.9,584.8c0,4.5,0.1,9,0.1,13.6c0,0.7,0.7,0.9,1.3,0.9c0.5,0,1.6-0.4,1.6-1.1c0-4.5-0.1-9-0.1-13.6
				c0-0.7-0.7-0.9-1.3-0.9C1880,583.8,1878.9,584.2,1878.9,584.8L1878.9,584.8z"/>
		</g>
	</g>
	<g>
		<g>
			<path class="st3" d="M1303.5,393.7c0,0.2-0.1,0.3-0.1,0.5c0,0.1,0,0.2-0.1,0.2c0,0.1-0.1,0.3,0,0.1c-0.1,0.3-0.2,0.6-0.4,0.9
				c-0.1,0.1-0.2,0.3-0.2,0.4c0,0.1-0.1,0.1-0.1,0.2c0,0-0.2,0.3-0.1,0.1c0.1-0.1-0.1,0.1-0.1,0.1c-0.1,0.1-0.1,0.1-0.2,0.2
				c-0.1,0.1-0.2,0.2-0.3,0.4c-0.1,0.1-0.2,0.2-0.4,0.3c-0.2,0.2,0.2-0.2,0,0c-0.1,0-0.1,0.1-0.2,0.1c-0.1,0.1-0.3,0.2-0.4,0.3
				c-0.1,0-0.1,0.1-0.2,0.1c-0.3,0.2,0.3-0.1,0,0c-0.3,0.1-0.6,0.3-0.9,0.4c0.5-0.2,0,0-0.2,0c-0.2,0-0.4,0.1-0.6,0.1
				c-0.3,0.1-0.7,0.3-1,0.5c-0.2,0.2-0.3,0.5-0.3,0.7c0.2,0.7,1.1,0.6,1.7,0.5c3.3-0.6,6.3-3.3,6.9-6.7c0.1-0.7-0.8-0.9-1.3-0.8
				C1304.5,392.7,1303.7,393,1303.5,393.7L1303.5,393.7z"/>
		</g>
	</g>
	<g>
		<g>
			<path class="st3" d="M1296.1,395.5c-0.7-3-1.4-6.1-2.1-9.1c-0.3-1.4-3.2-0.6-2.9,0.8c0.7,3,1.4,6.1,2.1,9.1
				C1293.6,397.6,1296.5,396.9,1296.1,395.5L1296.1,395.5z"/>
		</g>
	</g>
	<g>
		<g>
			<path class="st3" d="M1286.2,397.7c-0.8-3-1.5-6-2.3-9c-0.1-0.5-1.3-0.2-1.6-0.1c-0.3,0.1-1.4,0.4-1.3,0.9c0.8,3,1.5,6,2.3,9
				c0.1,0.5,1.3,0.2,1.6,0.1C1285.2,398.5,1286.3,398.2,1286.2,397.7L1286.2,397.7z"/>
		</g>
	</g>
	<g>
		<g>
			<path class="st3" d="M1749.3,49.8c-3.4,2.1-6.7,4.7-9.4,7.7c-0.2,0.2-0.4,0.4-0.3,0.6c0.1,0.2,0.4,0.4,0.6,0.4
				c0.6,0.1,1.6-0.1,2-0.5c2.6-2.9,5.6-5.3,8.9-7.3c0.4-0.3,0.9-0.8,0.2-1.1C1750.7,49.2,1749.8,49.5,1749.3,49.8L1749.3,49.8z"/>
		</g>
	</g>
	<g>
		<g>
			<path class="st3" d="M1738.5,46.4c0,2,0,3.9,0,5.9c0,0.6,2.9,0.1,2.9-0.8c0-2,0-3.9,0-5.9C1741.4,45,1738.5,45.5,1738.5,46.4
				L1738.5,46.4z"/>
		</g>
	</g>
	<g>
		<g>
			<path class="st3" d="M1727.1,45.6c0.5,2.8,0.9,5.6,1.4,8.4c0.1,0.4,1.3,0.1,1.6,0.1c0.3-0.1,1.4-0.4,1.3-0.8
				c-0.5-2.8-0.9-5.6-1.4-8.4c-0.1-0.4-1.3-0.1-1.6-0.1C1728.1,44.8,1727,45.1,1727.1,45.6L1727.1,45.6z"/>
		</g>
	</g>
	<g>
		<g>
			<path class="st3" d="M1838.4,296.5c-0.7,3.7-2.5,7.3-5.2,9.9c-0.4,0.4-0.4,0.8,0.2,0.9c0.6,0.1,1.6-0.1,2-0.5
				c3-2.8,5.1-6.5,5.8-10.6C1841.4,295.1,1838.5,295.6,1838.4,296.5L1838.4,296.5z"/>
		</g>
	</g>
	<g>
		<g>
			<path class="st3" d="M1831.4,289.7c-0.4,3.8-0.7,7.5-1.1,11.3c-0.1,1.3,2.8,0.8,2.9-0.3c0.4-3.8,0.7-7.5,1.1-11.3
				C1834.5,288,1831.6,288.5,1831.4,289.7L1831.4,289.7z"/>
		</g>
	</g>
	<g>
		<g>
			<path class="st3" d="M1820.4,296.5c0,2.3,0,4.5,0,6.8c0,0.6,0.7,0.7,1.3,0.7c0.4-0.1,0.8-0.2,1.1-0.4c0.2-0.1,0.5-0.4,0.5-0.6
				c0-2.3,0-4.5,0-6.8c0-0.6-0.7-0.7-1.3-0.7c-0.4,0.1-0.8,0.2-1.1,0.4C1820.7,296,1820.4,296.2,1820.4,296.5L1820.4,296.5z"/>
		</g>
	</g>
	<g>
		<g>
			<path class="st3" d="M1580.7,64.4c-0.3,0.7-0.7,1.3-1,1.9c-0.2,0.3-0.4,0.6-0.6,0.9c-0.1,0.1-0.2,0.3-0.3,0.4
				c-0.1,0.1-0.1,0.1-0.2,0.2c-0.1,0.1,0,0-0.1,0.1c-0.5,0.6-1,1.1-1.5,1.6c-0.3,0.2-0.5,0.5-0.8,0.7c-0.1,0.1-0.1,0.1,0,0
				c-0.1,0.1-0.1,0.1-0.2,0.2c-0.2,0.1-0.3,0.2-0.5,0.4c-0.4,0.3-0.9,0.9-0.2,1.2c0.6,0.3,1.5,0.1,2.1-0.2c2.6-1.8,4.8-4.3,6.1-7.2
				c0.1-0.2,0.2-0.4,0-0.7c-0.2-0.2-0.5-0.3-0.8-0.3c-0.4,0-0.8,0.1-1.1,0.2C1581.2,63.9,1580.8,64.1,1580.7,64.4L1580.7,64.4z"/>
		</g>
	</g>
	<g>
		<g>
			<path class="st3" d="M1571.5,62.4c-1.2,3.3-1.5,6.9-1.1,10.4c0.1,0.9,3,0.2,2.9-0.8c-0.4-3.4,0-6.8,1.1-10
				c0.2-0.6-0.9-0.6-1.2-0.5C1572.7,61.5,1571.8,61.8,1571.5,62.4L1571.5,62.4z"/>
		</g>
	</g>
	<g>
		<g>
			<path class="st3" d="M1558.6,54.4c-1,4.6-0.4,9.6,1.8,13.8c0.5,0.9,3.3-0.1,2.9-0.8c-2.2-4.1-2.8-8.9-1.8-13.4
				C1561.7,53,1558.8,53.5,1558.6,54.4L1558.6,54.4z"/>
		</g>
	</g>
	<g>
		<g>
			<path class="st3" d="M1788.7,115.6c-1.8,2.3-3.7,4.6-5.5,6.9c-0.3,0.4,1.1,0.3,1.1,0.2c0.6-0.1,1.3-0.3,1.7-0.8
				c1.8-2.3,3.7-4.6,5.5-6.9c0.3-0.4-1.1-0.3-1.1-0.2C1789.8,115,1789.1,115.1,1788.7,115.6L1788.7,115.6z"/>
		</g>
	</g>
	<g>
		<g>
			<path class="st3" d="M1777.4,111c0,3.4,0,6.8,0,10.2c0,0.7,0.7,0.8,1.3,0.7c0.4,0,1.6-0.4,1.6-1c0-3.4,0-6.8,0-10.2
				c0-0.7-0.7-0.8-1.3-0.7C1778.6,110,1777.4,110.4,1777.4,111L1777.4,111z"/>
		</g>
	</g>
	<g>
		<g>
			<path class="st3" d="M1768.4,116.9c0,2.6,0,5.3,0,7.9c0,0.4,1.4,0,1.6,0c0.3-0.1,0.7-0.2,1-0.4c0.1-0.1,0.4-0.2,0.4-0.4
				c0-2.6,0-5.3,0-7.9c0-0.4-1.4,0-1.6,0c-0.3,0.1-0.7,0.2-1,0.4C1768.6,116.6,1768.4,116.7,1768.4,116.9L1768.4,116.9z"/>
		</g>
	</g>
	<g>
		<g>
			<path class="st3" d="M1421.4,158.3c-0.2,0.3-0.3,0.6-0.5,0.9c-0.1,0.1-0.2,0.3-0.3,0.4c-0.1,0.1,0.1-0.2,0,0
				c-0.1,0.1-0.1,0.1-0.2,0.2c-0.4,0.5-0.8,1-1.3,1.5c-0.1,0.1-0.1,0.1-0.2,0.2c-0.1,0.1-0.2,0.3,0,0c-0.1,0.1-0.2,0.2-0.4,0.3
				c-0.3,0.2-0.5,0.4-0.8,0.6c-0.1,0.1-0.3,0.2-0.4,0.2c-0.1,0-0.2,0.1-0.2,0.1c0.2-0.1,0.2-0.1,0.1-0.1c0,0-0.1,0-0.1,0.1
				c-0.3,0.2-0.6,0.3-0.9,0.4c-0.5,0.2-1.2,0.9-0.7,1.4c0.5,0.5,1.4,0.4,2,0.2c2.8-1.3,5.2-3.4,6.6-6.2c0.3-0.6-0.3-1.1-0.9-1.1
				C1422.6,157.4,1421.7,157.6,1421.4,158.3L1421.4,158.3z"/>
		</g>
	</g>
	<g>
		<g>
			<path class="st3" d="M1412.9,161.3c-0.8-3-1.5-6-2.3-9c-0.2-0.6-3.1,0.2-2.9,0.8c0.8,3,1.5,6,2.3,9
				C1410.1,162.7,1413,161.9,1412.9,161.3L1412.9,161.3z"/>
		</g>
	</g>
	<g>
		<g>
			<path class="st3" d="M1464.2,333.6c-0.8,1.1-1.5,2.3-2.3,3.4c-0.1,0.2-0.2,0.4,0,0.6c0.2,0.2,0.5,0.3,0.8,0.3
				c0.4,0,0.8-0.1,1.1-0.2c0.3-0.1,0.6-0.3,0.8-0.6c0.8-1.1,1.5-2.3,2.3-3.4c0.1-0.2,0.2-0.4,0-0.6c-0.2-0.2-0.5-0.3-0.8-0.3
				c-0.4,0-0.8,0.1-1.1,0.2C1464.7,333.2,1464.4,333.3,1464.2,333.6L1464.2,333.6z"/>
		</g>
	</g>
	<g>
		<g>
			<path class="st3" d="M1453.4,334.8c2.7-3.7,3.2-8.8,1.1-12.8c-0.5-0.9-3.3,0-2.9,0.8c2,3.8,1.6,8.6-0.9,12.1
				c-0.4,0.5,0.3,0.7,0.8,0.8C1452.1,335.6,1453,335.3,1453.4,334.8L1453.4,334.8z"/>
		</g>
	</g>
	<g>
		<g>
			<path class="st3" d="M1447.8,332.4c0.4-2.8,0-5.6-1.2-8.2c-0.3-0.6-1.1-0.8-1.7-0.6c-0.5,0.1-1.5,0.7-1.2,1.4
				c1.1,2.4,1.5,5,1.1,7.6c-0.1,0.7,0.8,1,1.3,0.9C1446.8,333.5,1447.7,333.1,1447.8,332.4L1447.8,332.4z"/>
		</g>
	</g>
	<g>
		<g>
			<path class="st3" d="M1442,329.9c-1.2-2.2-2.3-4.5-3.5-6.7c-0.3-0.5-1.1-0.4-1.6-0.3c-0.3,0.1-0.7,0.2-1,0.5
				c-0.1,0.1-0.4,0.4-0.3,0.6c1.2,2.2,2.3,4.5,3.5,6.7c0.3,0.5,1.1,0.4,1.6,0.3c0.3-0.1,0.7-0.2,1-0.5
				C1441.9,330.4,1442.1,330.1,1442,329.9L1442,329.9z"/>
		</g>
	</g>
	<g>
		<g>
			<path class="st3" d="M1921,392.3c-2.3,0.7-4.5,1.8-6.3,3.5c-0.2,0.1-0.4,0.4-0.3,0.6c0.1,0.2,0.4,0.4,0.6,0.4
				c0.7,0.1,1.5-0.1,2-0.5c0.4-0.3,0.7-0.7,1.1-1c0.1-0.1-0.2,0.1,0,0c0,0,0.1-0.1,0.1-0.1c0.1-0.1,0.2-0.1,0.3-0.2
				c0.2-0.1,0.4-0.3,0.7-0.4c0.1-0.1,0.2-0.1,0.3-0.2c0.1,0,0.1-0.1,0.2-0.1c-0.1,0-0.3,0.1-0.1,0c0.2-0.1,0.4-0.2,0.7-0.3
				c0.2-0.1,0.5-0.2,0.7-0.3c0.2-0.1-0.3,0.1-0.1,0c0.1,0,0.1,0,0.2-0.1c0.1,0,0.3-0.1,0.4-0.1c0.3-0.1,0.7-0.2,1-0.5
				c0.2-0.1,0.4-0.4,0.3-0.6C1922.5,392,1921.4,392.2,1921,392.3L1921,392.3z"/>
		</g>
	</g>
	<g>
		<g>
			<path class="st3" d="M1911,390.3c-1.8,1.9-2.7,4.5-2.4,7c0,0.2,0.4,0.2,0.5,0.2c0.3,0,0.7-0.1,1.1-0.1c0.3-0.1,0.7-0.2,1-0.4
				c0.1-0.1,0.4-0.2,0.3-0.4c-0.3-2.3,0.5-4.8,2.1-6.5c0.4-0.5-0.4-0.5-0.7-0.5c-0.4,0-0.8,0.1-1.1,0.3
				C1911.6,390,1911.2,390.1,1911,390.3L1911,390.3z"/>
		</g>
	</g>
	<g>
		<g>
			<path class="st3" d="M1703.3,443.4c-2,1.8-3.9,3.6-5.9,5.4c-0.1,0.1-0.4,0.4-0.3,0.6c0.1,0.2,0.4,0.3,0.6,0.4
				c0.7,0.1,1.5-0.1,2-0.5c2-1.8,3.9-3.6,5.9-5.4c0.1-0.1,0.4-0.4,0.3-0.6c-0.1-0.2-0.4-0.3-0.6-0.4
				C1704.7,442.8,1703.8,443,1703.3,443.4L1703.3,443.4z"/>
		</g>
	</g>
	<g>
		<g>
			<path class="st3" d="M1691,448.8c0.5-5.1-0.3-10.2-2.3-14.9c-0.4-1-3.3-0.2-2.9,0.8c1.9,4.6,2.7,9.5,2.3,14.5
				C1688,450.4,1690.9,449.8,1691,448.8L1691,448.8z"/>
		</g>
	</g>
	<g>
		<g>
			<path class="st3" d="M1634.9,366.3c-2.7,4.1-5.3,8.3-8,12.4c-0.4,0.6,0.3,0.9,0.8,1c0.7,0,1.5-0.2,1.9-0.8
				c2.7-4.1,5.3-8.3,8-12.4c0.4-0.6-0.3-0.9-0.8-1C1636.2,365.5,1635.3,365.7,1634.9,366.3L1634.9,366.3z"/>
		</g>
	</g>
	<g>
		<g>
			<path class="st3" d="M1620.9,374c-0.8-4.5-1.5-9-2.3-13.6c-0.2-1.1-3.1-0.4-2.9,0.8c0.8,4.5,1.5,9,2.3,13.6
				C1618.1,375.8,1621.1,375.1,1620.9,374L1620.9,374z"/>
		</g>
	</g>
	<g>
		<g>
			<path class="st3" d="M1609.5,371.7c-1.5-3-3-6-4.5-9c-0.3-0.6-1.1-0.5-1.7-0.4c-0.3,0.1-1.5,0.6-1.2,1.1c1.5,3,3,6,4.5,9
				c0.3,0.6,1.1,0.5,1.7,0.4C1608.6,372.8,1609.8,372.3,1609.5,371.7L1609.5,371.7z"/>
		</g>
	</g>
	<g>
		<g>
			<path class="st3" d="M1599.3,377.4c-1.1-1.9-2.3-3.8-3.4-5.7c-0.3-0.5-1.2-0.3-1.6-0.2c-0.3,0.1-0.7,0.2-1,0.4
				c-0.1,0.1-0.4,0.3-0.3,0.5c1.1,1.9,2.3,3.8,3.4,5.7c0.3,0.5,1.2,0.3,1.6,0.2c0.3-0.1,0.7-0.2,1-0.4
				C1599.1,377.8,1599.5,377.5,1599.3,377.4L1599.3,377.4z"/>
		</g>
	</g>
	<g>
		<g>
			<path class="st3" d="M1718.6,292.7c-0.8,1.5-1.5,3-2.3,4.5c-0.3,0.6,0.3,1.2,0.9,1.3c0.7,0.1,1.5-0.2,1.9-0.9
				c0.8-1.5,1.5-3,2.3-4.5c0.3-0.6-0.3-1.2-0.9-1.3C1719.7,291.7,1718.9,292,1718.6,292.7L1718.6,292.7z"/>
		</g>
	</g>
	<g>
		<g>
			<path class="st3" d="M1708.4,286.3c0,3.4,0,6.8,0,10.2c0,0.7,0.7,0.8,1.3,0.8c0.5,0,1.6-0.4,1.6-1.1c0-3.4,0-6.8,0-10.2
				c0-0.7-0.7-0.8-1.3-0.8C1709.5,285.3,1708.4,285.6,1708.4,286.3L1708.4,286.3z"/>
		</g>
	</g>
	<g>
		<g>
			<path class="st3" d="M1507.9,867.6c-4.1,2.2-7.3,6-8.8,10.4c-0.2,0.5,1,0.3,1.2,0.3c0.4-0.1,0.8-0.2,1.1-0.3
				c0.2-0.1,0.5-0.2,0.6-0.4c1.4-4.2,4.3-7.7,8.2-9.8c0.1-0.1,0.4-0.3,0.3-0.4c0-0.2-0.4-0.2-0.5-0.2
				C1509.3,867.1,1508.5,867.3,1507.9,867.6L1507.9,867.6z"/>
		</g>
	</g>
	<g>
		<g>
			<path class="st3" d="M1496.2,877.5c0.7-4.8,1.4-9.7,2.1-14.5c0-0.3-2.8-0.1-2.9,0.8c-0.7,4.8-1.4,9.7-2.1,14.5
				C1493.2,878.6,1496,878.4,1496.2,877.5L1496.2,877.5z"/>
		</g>
	</g>
	<g>
		<g>
			<path class="st3" d="M1487.5,873.3c0-5.5,0-11.1,0-16.6c0-0.9-2.9-0.3-2.9,0.8c0,5.5,0,11.1,0,16.6
				C1484.6,875,1487.5,874.4,1487.5,873.3L1487.5,873.3z"/>
		</g>
	</g>
	<g>
		<g>
			<path class="st3" d="M1377.6,765.7c0-3.5,0-6.9,0-10.4c0-0.7-0.7-1-1.4-1c-0.6,0-1.6,0.5-1.6,1.2c0,3.5,0,6.9,0,10.4
				c0,0.7,0.7,1,1.4,1C1376.6,766.9,1377.6,766.4,1377.6,765.7L1377.6,765.7z"/>
		</g>
	</g>
	<g>
		<g>
			<path class="st3" d="M1365.2,765.6c0-4.1,0-8.3,0-12.4c0-0.7-0.7-0.7-1.3-0.7c-0.4,0-1.6,0.4-1.6,1c0,4.1,0,8.3,0,12.4
				c0,0.7,0.7,0.7,1.3,0.7C1363.9,766.6,1365.2,766.3,1365.2,765.6L1365.2,765.6z"/>
		</g>
	</g>
	<g>
		<g>
			<path class="st3" d="M1910.4,796.3c-4.9,2.6-9.8,5.3-14.7,7.9c-0.5,0.3-0.8,0.9-0.2,1.2c0.6,0.4,1.5,0,2.1-0.3
				c4.9-2.6,9.8-5.3,14.7-7.9c0.5-0.3,0.8-0.9,0.2-1.2C1911.8,795.7,1910.9,796.1,1910.4,796.3L1910.4,796.3z"/>
		</g>
	</g>
	<g>
		<g>
			<path class="st3" d="M1891.7,795.2c-0.7,2.8-1.4,5.5-2.1,8.3c-0.1,0.5,0.9,0.4,1.2,0.3c0.4-0.1,0.8-0.2,1.1-0.3
				c0.2-0.1,0.5-0.2,0.6-0.5c0.7-2.8,1.4-5.5,2.1-8.3c0.1-0.5-0.9-0.4-1.2-0.3c-0.4,0.1-0.8,0.2-1.1,0.3
				C1892.1,794.9,1891.8,795,1891.7,795.2L1891.7,795.2z"/>
		</g>
	</g>
	<g>
		<g>
			<path class="st3" d="M1686.1,854.8c-3.3,2.9-6.6,5.9-9.9,8.8c-0.1,0.1-0.4,0.3-0.3,0.5c0.1,0.2,0.4,0.3,0.5,0.3
				c0.6,0.1,1.6-0.1,2-0.5c3.3-2.9,6.6-5.9,9.9-8.8c0.1-0.1,0.4-0.3,0.3-0.5c-0.1-0.2-0.4-0.3-0.5-0.3
				C1687.5,854.2,1686.6,854.4,1686.1,854.8L1686.1,854.8z"/>
		</g>
	</g>
	<g>
		<g>
			<path class="st3" d="M1674.2,862.9c0-4.1,0-8.3,0-12.4c0-0.6-1.3-0.4-1.6-0.3c-0.5,0.1-1.3,0.5-1.3,1.1c0,4.1,0,8.3,0,12.4
				c0,0.6,1.3,0.4,1.6,0.3C1673.5,863.9,1674.2,863.6,1674.2,862.9L1674.2,862.9z"/>
		</g>
	</g>
	<g>
		<g>
			<path class="st3" d="M1618,529.5c-2.1,2.1-4.2,4.1-6.3,6.2c-0.1,0.1-0.4,0.3-0.3,0.6c0.1,0.2,0.4,0.3,0.6,0.4
				c0.6,0.1,1.6-0.1,2-0.5c2.1-2.1,4.2-4.1,6.3-6.2c0.1-0.1,0.4-0.3,0.3-0.6c-0.1-0.2-0.4-0.3-0.6-0.4
				C1619.5,528.8,1618.5,529,1618,529.5L1618,529.5z"/>
		</g>
	</g>
	<g>
		<g>
			<path class="st3" d="M1614.1,533.4c0-6.2,0-12.4,0-18.7c0-1.5-2.9-1-2.9,0.2c0,6.2,0,12.4,0,18.7
				C1611.2,535.1,1614.1,534.6,1614.1,533.4L1614.1,533.4z"/>
		</g>
	</g>
	<g>
		<g>
			<path class="st3" d="M1607.8,529.1c0.8-4.3,0.2-8.8-1.9-12.6c-0.5-0.9-3.3,0.1-2.9,0.8c2,3.7,2.7,8.1,1.9,12.3
				C1604.7,530.5,1607.6,530,1607.8,529.1L1607.8,529.1z"/>
		</g>
	</g>
	<g>
		<g>
			<path class="st3" d="M1472.9,448.4c2.1-2.3,2.9-5.6,2.1-8.6c-0.1-0.5-1.3-0.2-1.6-0.1c-0.3,0.1-1.4,0.4-1.3,0.9
				c0.8,2.8,0.1,5.9-1.8,8c-0.4,0.5,0.4,0.6,0.7,0.5C1471.6,449,1472.5,448.9,1472.9,448.4L1472.9,448.4z"/>
		</g>
	</g>
	<g>
		<g>
			<path class="st3" d="M1466.8,444.2c0-3.5,0-6.9,0-10.4c0-0.7-0.7-1-1.3-1c-0.6,0-1.6,0.5-1.6,1.2c0,3.5,0,6.9,0,10.4
				c0,0.7,0.7,1,1.3,1C1465.8,445.3,1466.8,444.9,1466.8,444.2L1466.8,444.2z"/>
		</g>
	</g>
	<g>
		<g>
			<path class="st3" d="M1796.6,504.7c2.1-4.8,4.2-9.7,6.2-14.5c0.7-1.6-2.2-1.7-2.8-0.4c-2.1,4.8-4.2,9.7-6.2,14.5
				C1793.1,505.8,1796.1,505.9,1796.6,504.7L1796.6,504.7z"/>
		</g>
	</g>
	<g>
		<g>
			<path class="st3" d="M1790.4,500.2c0-5.5,0-11.1,0-16.6c0-1.4-2.9-0.8-2.9,0.3c0,5.5,0,11.1,0,16.6
				C1787.5,501.8,1790.4,501.3,1790.4,500.2L1790.4,500.2z"/>
		</g>
	</g>
	<g>
		<g>
			<path class="st3" d="M1784.7,491.5c-0.7-2.1-1.4-4.1-2.1-6.2c-0.2-0.5-1.3-0.2-1.6-0.1c-0.3,0.1-0.7,0.2-1,0.4
				c-0.1,0.1-0.4,0.3-0.3,0.5c0.7,2.1,1.4,4.1,2.1,6.2c0.2,0.5,1.3,0.2,1.6,0.1c0.3-0.1,0.7-0.2,1-0.4
				C1784.5,491.8,1784.7,491.6,1784.7,491.5L1784.7,491.5z"/>
		</g>
	</g>
	<g>
		<g>
			<path class="st3" d="M1897.9,203.1c-0.7-0.7-1.4-1.4-2.1-2.1c-0.1-0.1-0.2-0.1-0.3-0.1c-0.1,0-0.3-0.1-0.4,0
				c-0.4,0-0.8,0.1-1.1,0.2c-0.1,0.1-0.2,0.1-0.3,0.2c-0.2,0.1-0.3,0.2-0.5,0.4c-0.1,0.2-0.2,0.3,0,0.5c0.7,0.7,1.4,1.4,2.1,2.1
				c0.1,0.1,0.2,0.1,0.3,0.1c0.1,0,0.3,0.1,0.4,0c0.4,0,0.8-0.1,1.1-0.2c0.1-0.1,0.2-0.1,0.3-0.2c0.2-0.1,0.3-0.2,0.5-0.4
				C1898,203.5,1898.1,203.3,1897.9,203.1L1897.9,203.1z"/>
		</g>
	</g>
	<g>
		<g>
			<path class="st3" d="M1893.9,201.4c0-3.5,0-6.9,0-10.4c0-0.7-0.7-0.8-1.3-0.8c-0.5,0-1.6,0.4-1.6,1.1c0,3.5,0,6.9,0,10.4
				c0,0.7,0.7,0.8,1.3,0.8C1892.7,202.5,1893.9,202.1,1893.9,201.4L1893.9,201.4z"/>
		</g>
	</g>
	<g>
		<g>
			<path class="st3" d="M1887.6,192.9c0-2.1,0-4.1,0-6.2c0-0.2-0.4-0.3-0.5-0.4c-0.3-0.1-0.8,0-1.1,0.1c-0.5,0.1-1.3,0.4-1.3,1
				c0,2.1,0,4.1,0,6.2c0,0.2,0.4,0.3,0.5,0.4c0.3,0.1,0.8,0,1.1-0.1C1886.9,193.8,1887.6,193.5,1887.6,192.9L1887.6,192.9z"/>
		</g>
	</g>
	<g>
		<g>
			<path class="st3" d="M1595.4,153.6c1.4-4.1,2.8-8.3,4.1-12.4c0.2-0.5-0.9-0.4-1.2-0.3c-0.4,0.1-1.5,0.3-1.7,0.8
				c-1.4,4.1-2.8,8.3-4.1,12.4c-0.2,0.5,0.9,0.4,1.2,0.3C1594.1,154.4,1595.2,154.1,1595.4,153.6L1595.4,153.6z"/>
		</g>
	</g>
	<g>
		<g>
			<path class="st3" d="M1593.9,155c1.7,0,2.2-2.3,0.2-2.3C1592.4,152.7,1591.9,155,1593.9,155L1593.9,155z"/>
		</g>
	</g>
	<g>
		<g>
			<path class="st3" d="M1583,152.5c2.3-2.4,3.1-6.2,1.8-9.3c-0.3-0.7-1.1-0.9-1.7-0.7c-0.5,0.2-1.4,0.7-1.2,1.4
				c0.5,1.4,0.7,2.7,0.4,4.1c-0.2,1.3-0.8,2.5-1.8,3.5c-0.5,0.5-0.2,1.3,0.4,1.5C1581.7,153.3,1582.5,153,1583,152.5L1583,152.5z"/>
		</g>
	</g>
	<g>
		<g>
			<path class="st3" d="M1580.9,152.4c0.5,0,1.6-0.2,1.9-0.7c0.3-0.5-0.3-0.6-0.7-0.6c-0.5,0-1.6,0.2-1.9,0.7
				C1579.9,152.4,1580.5,152.4,1580.9,152.4L1580.9,152.4z"/>
		</g>
	</g>
	<g>
		<g>
			<path class="st3" d="M1414.6,41.5c1.4-4.1,2.8-8.3,4.2-12.4c0.2-0.6-0.9-0.6-1.2-0.6c-0.6,0.1-1.4,0.3-1.7,1
				c-1.4,4.1-2.8,8.3-4.2,12.4c-0.2,0.6,0.9,0.6,1.2,0.6C1413.5,42.4,1414.4,42.1,1414.6,41.5L1414.6,41.5z"/>
		</g>
	</g>
	<g>
		<g>
			<path class="st3" d="M1406.6,41.5c0-10.4,0-20.7,0-31.1c0-0.8-2.9-0.3-2.9,0.8c0,10.4,0,20.7,0,31.1
				C1403.7,43.1,1406.6,42.5,1406.6,41.5L1406.6,41.5z"/>
		</g>
	</g>
	<g>
		<g>
			<path class="st3" d="M1276,176.5c0.7-3.5,1.4-6.9,2.1-10.4c0.2-1.1-2.7-0.7-2.9,0.3c-0.7,3.5-1.4,6.9-2.1,10.4
				C1272.8,178,1275.8,177.5,1276,176.5L1276,176.5z"/>
		</g>
	</g>
	<g>
		<g>
			<path class="st3" d="M1259.6,178.3c-1.5-4.8-2.9-9.6-4.4-14.4c-0.4-1.4-3.3-0.6-2.9,0.8c1.5,4.8,2.9,9.6,4.4,14.4
				C1257.2,180.5,1260.1,179.7,1259.6,178.3L1259.6,178.3z"/>
		</g>
	</g>
	<g>
		<g>
			<path class="st3" d="M1169.1,219.9c-2.1,4.1-4.2,8.3-6.3,12.4c-0.3,0.6,0.3,1.2,0.9,1.3c0.7,0.1,1.5-0.2,1.9-0.9
				c2.1-4.1,4.2-8.3,6.3-12.4c0.3-0.6-0.3-1.2-0.9-1.3C1170.2,218.9,1169.4,219.2,1169.1,219.9L1169.1,219.9z"/>
		</g>
	</g>
	<g>
		<g>
			<path class="st3" d="M1171.7,220.1c-1.8-1.7-4.5-1.9-6.8-1.2c-2.3,0.7-4.5,2.2-5.6,4.4c-0.5,1.1-0.7,2.3-0.4,3.5
				c0.2,1,3.1,0.2,2.9-0.8c-0.3-1-0.1-2.2,0.4-3.1c0.1-0.3,0.3-0.5,0.5-0.7c0.1-0.1,0.1-0.2,0.2-0.3c0-0.1,0.1-0.1,0.1-0.2
				c-0.1,0.1-0.1,0.1,0,0c0.2-0.2,0.4-0.4,0.6-0.6c0,0,0.4-0.3,0.2-0.1c0.1-0.1,0.2-0.2,0.4-0.2c0.1-0.1,0.3-0.1,0.4-0.2
				c0.1-0.1,0.1-0.1,0,0c0.1,0,0.1-0.1,0.2-0.1c0.1-0.1,0.3-0.1,0.4-0.2c0.2-0.1,0.1-0.1-0.1,0c0.1,0,0.1,0,0.2-0.1
				c0.1,0,0.3-0.1,0.4-0.1c-0.2,0.1-0.2,0,0,0c0.1,0,0.3,0,0.4-0.1c0.2,0,0.1,0,0,0c0.1,0,0.1,0,0.2,0c0.4,0,0.9,0.1,1.3,0.2
				c0.5,0.2,0.9,0.5,1.3,0.9c0.5,0.4,1.4,0.2,1.9,0C1171.2,221.1,1172.2,220.6,1171.7,220.1L1171.7,220.1z"/>
		</g>
	</g>
	<g>
		<g>
			<path class="st3" d="M1265.1,711.6c-1.4,1.4-2.8,2.8-4.2,4.1c-0.2,0.2-0.3,0.5-0.2,0.8c0.1,0.3,0.3,0.5,0.6,0.6
				c0.7,0.2,1.5,0,2-0.5c1.4-1.4,2.8-2.8,4.2-4.1c0.2-0.2,0.3-0.5,0.2-0.8c-0.1-0.3-0.3-0.5-0.6-0.6
				C1266.4,710.8,1265.7,711.1,1265.1,711.6L1265.1,711.6z"/>
		</g>
	</g>
	<g>
		<g>
			<path class="st3" d="M1267.5,711.6c-2.1-4.1-4.3-8.2-6.4-12.3c-0.4-0.7-3.1,0.3-2.9,0.8c2.1,4.1,4.3,8.2,6.4,12.3
				C1264.9,713.1,1267.7,712,1267.5,711.6L1267.5,711.6z"/>
		</g>
	</g>
	<g>
		<g>
			<path class="st3" d="M1323.2,534.9c-2.8,2.1-5.5,4.2-8.3,6.2c-0.4,0.3-0.8,1-0.2,1.4c0.6,0.4,1.5,0.2,2.1-0.2
				c2.8-2.1,5.5-4.2,8.3-6.2c0.4-0.3,0.8-1,0.2-1.4C1324.7,534.3,1323.8,534.5,1323.2,534.9L1323.2,534.9z"/>
		</g>
	</g>
	<g>
		<g>
			<path class="st3" d="M1309.5,537.6c2.1-5.3,2.7-11.2,1.6-16.9c-0.2-0.8-3.1-0.1-2.9,0.8c1.1,5.6,0.5,11.3-1.6,16.5
				C1306.3,538.7,1309.2,538.4,1309.5,537.6L1309.5,537.6z"/>
		</g>
	</g>
	<g>
		<g>
			<path class="st3" d="M1302.9,539.6c0-4.1,0-8.3,0-12.4c0-0.7-0.7-1-1.3-0.9c-0.5,0-1.6,0.4-1.6,1.1c0,4.1,0,8.3,0,12.4
				c0,0.7,0.7,1,1.3,0.9C1301.9,540.7,1302.9,540.3,1302.9,539.6L1302.9,539.6z"/>
		</g>
	</g>
	<g>
		<g>
			<path class="st3" d="M1144.6,56.7c5.2,1,10.1,3.2,14.2,6.5c0.5,0.4,1.4,0,1.9-0.1c0.2-0.1,1.3-0.5,0.8-0.9
				c-4.3-3.3-9.3-5.6-14.6-6.6c-0.7-0.1-1.4,0-2,0.4C1144.7,56,1144,56.6,1144.6,56.7L1144.6,56.7z"/>
		</g>
	</g>
	<g>
		<g>
			<path class="st3" d="M1140.3,326.4c2.9,2.6,5.8,5.2,8.7,7.8c0.1,0.1,0.6,0.1,0.7,0.1c0.4,0,0.8-0.1,1.1-0.3
				c0.2-0.1,1.2-0.5,0.9-0.8c-2.9-2.6-5.8-5.2-8.7-7.8c-0.1-0.1-0.6-0.1-0.7-0.1c-0.4,0-0.8,0.1-1.1,0.3
				C1141,325.7,1140,326.1,1140.3,326.4L1140.3,326.4z"/>
		</g>
	</g>
	<g>
		<g>
			<path class="st3" d="M1155.2,332c0.9-6.2,1.8-12.4,2.6-18.6c0.1-0.8-2.8-0.3-2.9,0.5c-0.9,6.2-1.8,12.4-2.6,18.6
				C1152.2,333.3,1155.1,332.8,1155.2,332L1155.2,332z"/>
		</g>
	</g>
	<g>
		<g>
			<path class="st3" d="M1165.6,327.8c-2.1-2.1-2.7-5.5-1.6-8.2c0.2-0.5-1-0.3-1.2-0.3c-0.4,0.1-0.8,0.2-1.1,0.3
				c-0.2,0.1-0.5,0.2-0.6,0.4c-1.2,3-0.5,6.4,1.7,8.7c0.1,0.1,0.6,0.1,0.7,0.1c0.4,0,0.8-0.1,1.1-0.3
				C1165,328.6,1166,328.2,1165.6,327.8L1165.6,327.8z"/>
		</g>
	</g>
	<g>
		<g>
			<path class="st3" d="M1119.5,434.4c3.5,2.1,6.9,4.1,10.4,6.2c0.5,0.3,1.3,0.1,1.9-0.1c0.2-0.1,1.3-0.7,0.8-1
				c-3.5-2.1-6.9-4.1-10.4-6.2c-0.5-0.3-1.3-0.1-1.9,0.1C1120.2,433.5,1119,434.1,1119.5,434.4L1119.5,434.4z"/>
		</g>
	</g>
	<g>
		<g>
			<path class="st3" d="M1141,431.5c0-2.8,0-5.5,0-8.3c0-0.2-0.4-0.3-0.6-0.4c-0.3-0.1-0.8,0-1.1,0.1c-0.5,0.1-1.3,0.4-1.3,1.1
				c0,2.8,0,5.5,0,8.3c0,0.2,0.4,0.3,0.6,0.4c0.3,0.1,0.8,0,1.1-0.1C1140.2,432.4,1141,432.1,1141,431.5L1141,431.5z"/>
		</g>
	</g>
	<g>
		<g>
			<path class="st3" d="M1209.9,457.5c0.1,0,0.2,0,0.3,0c0.3,0-0.3,0,0,0c0.2,0,0.3,0,0.5,0c0.3,0,0,0,0,0c0,0,0.2,0,0.2,0
				c0.2,0,0.3,0.1,0.5,0.1c0,0,0.3,0.1,0.1,0c-0.2,0,0.1,0,0.1,0.1c0.1,0.1,0.3,0.1,0.4,0.2c0.2,0.1,0.3,0.2,0.4,0.2
				c0.1,0,0.1,0.1,0.2,0.1c0,0,0.2,0.2,0.1,0.1c-0.1-0.1,0.1,0.1,0.1,0.1c0.1,0.1,0.1,0.1,0.2,0.2c0.1,0.1,0.2,0.2,0.3,0.3
				c0.2,0.2,0.4,0.5,0.6,0.7c0.1,0.1,0.2,0.3,0.2,0.3c0,0,0.1,0.1,0.1,0.2c0,0.1,0.1,0.1,0.1,0.2c0.1,0.3,0.2,0.6,0.3,1
				c0.1,0.2,0.4,0.4,0.6,0.4c0.3,0.1,0.8,0,1.1-0.1c0.4-0.1,1.4-0.5,1.2-1.1c-0.7-3.2-4.2-5.1-7.3-4.7c-0.4,0-0.8,0.2-1.1,0.4
				c-0.2,0.1-0.5,0.4-0.5,0.6C1208.5,457.5,1209.5,457.5,1209.9,457.5L1209.9,457.5z"/>
		</g>
	</g>
	<g>
		<g>
			<path class="st3" d="M1210.3,457.7c4.8-1.4,9.7-2.8,14.5-4.1c0.6-0.2,1.4-0.7,1.2-1.3c-0.2-0.7-1.2-0.7-1.7-0.6
				c-4.8,1.4-9.7,2.8-14.5,4.1c-0.6,0.2-1.4,0.7-1.2,1.3C1208.8,457.8,1209.8,457.8,1210.3,457.7L1210.3,457.7z"/>
		</g>
	</g>
	<g>
		<g>
			<path class="st3" d="M1100.5,529.8c2.9,5.5,5.8,10.9,8.7,16.4c0.5,1,3.4,0.1,2.9-0.8c-2.9-5.5-5.8-10.9-8.7-16.4
				C1102.9,528.1,1100.1,529,1100.5,529.8L1100.5,529.8z"/>
		</g>
	</g>
	<g>
		<g>
			<path class="st3" d="M1117.3,528.8c-4,3.9-5.6,10-3.8,15.4c0.3,1,3.2,0.2,2.9-0.8c-1.6-4.8-0.4-10.5,3.3-14.1
				c0.4-0.4,0.3-0.9-0.3-1C1118.7,528.1,1117.8,528.3,1117.3,528.8L1117.3,528.8z"/>
		</g>
	</g>
	<g>
		<g>
			<path class="st3" d="M1123.6,533.6c0,4.1,0,8.3,0,12.4c0,0.7,0.7,0.8,1.3,0.8c0.5,0,1.6-0.4,1.6-1.1c0-4.1,0-8.3,0-12.4
				c0-0.7-0.7-0.8-1.3-0.8C1124.7,532.6,1123.6,533,1123.6,533.6L1123.6,533.6z"/>
		</g>
	</g>
	<g>
		<g>
			<path class="st3" d="M1141.5,669.3c4.1-0.4,8.2,1.1,11.2,3.9c0.5,0.5,1.3,0.4,2,0.2c0.4-0.2,1.2-0.9,0.7-1.4
				c-3.6-3.4-8.6-5.1-13.5-4.7c-0.6,0.1-1.5,0.4-1.6,1.1C1140.1,669.1,1141,669.3,1141.5,669.3L1141.5,669.3z"/>
		</g>
	</g>
	<g>
		<g>
			<path class="st3" d="M1158.9,656.2c2.1,5.9,2.8,12.3,1.9,18.5c-0.2,1.1,2.8,0.5,2.9-0.4c0.9-6.4,0.3-12.8-1.9-18.9
				C1161.5,654.5,1158.6,655.4,1158.9,656.2L1158.9,656.2z"/>
		</g>
	</g>
	<g>
		<g>
			<path class="st3" d="M1202.2,575.5c2.8,3.5,5.5,6.9,8.3,10.4c0.3,0.4,1.2,0.1,1.6,0c0.1,0,1.6-0.5,1.3-0.8
				c-2.8-3.5-5.5-6.9-8.3-10.4c-0.3-0.4-1.2-0.1-1.6,0C1203.4,574.7,1202,575.2,1202.2,575.5L1202.2,575.5z"/>
		</g>
	</g>
	<g>
		<g>
			<path class="st3" d="M1216.9,566.8c0,6.2,0,12.4,0,18.7c0,1.3,2.9,0.7,2.9-0.3c0-6.2,0-12.4,0-18.7
				C1219.8,565.2,1216.9,565.8,1216.9,566.8L1216.9,566.8z"/>
		</g>
	</g>
	<g>
		<g>
			<path class="st3" d="M1225.1,575.4c0.8,4.1,0.2,8.4-1.8,12.1c-0.6,1.2,2.3,0.8,2.7,0c2.1-3.9,2.9-8.5,2-12.9
				C1227.8,573.7,1224.9,574.4,1225.1,575.4L1225.1,575.4z"/>
		</g>
	</g>
	<g>
		<g>
			<path class="st3" d="M1190.4,781.1c2.8,2.1,5.5,4.2,8.3,6.3c0.6,0.4,1.6,0.3,2.1-0.2c0.5-0.4,0.7-1.1,0.2-1.5
				c-2.8-2.1-5.5-4.2-8.3-6.3c-0.6-0.4-1.6-0.3-2.1,0.2C1190.1,779.9,1189.8,780.6,1190.4,781.1L1190.4,781.1z"/>
		</g>
	</g>
	<g>
		<g>
			<path class="st3" d="M1191.3,781.5c1.7,0,2.2-2.3,0.2-2.3C1189.8,779.2,1189.3,781.5,1191.3,781.5L1191.3,781.5z"/>
		</g>
	</g>
	<g>
		<g>
			<path class="st3" d="M1202.4,770.4c0,4.8,0,9.7,0,14.5c0,0.9,2.9,0.3,2.9-0.8c0-4.8,0-9.7,0-14.5
				C1205.3,768.7,1202.4,769.2,1202.4,770.4L1202.4,770.4z"/>
		</g>
	</g>
	<g>
		<g>
			<path class="st3" d="M1227.6,1031.8c3.4,3.5,6.8,7,10.2,10.5c0.5,0.5,1.3,0.6,2,0.2c0.5-0.2,1.2-1,0.7-1.5
				c-3.4-3.5-6.8-7-10.2-10.5c-0.5-0.5-1.3-0.6-2-0.2C1227.8,1030.5,1227.1,1031.3,1227.6,1031.8L1227.6,1031.8z"/>
		</g>
	</g>
	<g>
		<g>
			<path class="st3" d="M1243.9,1021.1c0,4.1,0,8.3,0,12.4c0,0.7,0.7,0.8,1.3,0.8c0.5,0,1.6-0.4,1.6-1.1c0-4.1,0-8.3,0-12.4
				c0-0.7-0.7-0.8-1.3-0.8C1245,1020.1,1243.9,1020.5,1243.9,1021.1L1243.9,1021.1z"/>
		</g>
	</g>
	<g>
		<g>
			<path class="st3" d="M1243.9,1021.7c5.6,5,10,11.3,12.6,18.3c0.4,1.2,3.3,0.3,2.9-0.8c-2.6-7.2-7-13.7-12.8-18.7
				c-0.5-0.5-1.3-0.4-1.9-0.1C1244.3,1020.5,1243.4,1021.2,1243.9,1021.7L1243.9,1021.7z"/>
		</g>
	</g>
	<g>
		<g>
			<path class="st3" d="M1783.2,992.6c4.8,4.1,9.7,8.3,14.5,12.4c0.4,0.4,1.4,0,1.9-0.2c0.2-0.1,1.3-0.5,0.9-0.8
				c-4.8-4.1-9.7-8.3-14.5-12.4c-0.4-0.4-1.4,0-1.9,0.2C1783.8,991.9,1782.8,992.3,1783.2,992.6L1783.2,992.6z"/>
		</g>
	</g>
	<g>
		<g>
			<path class="st3" d="M1806.3,993.9c-1.6-3.3-1.3-7.3,0.7-10.4c0.3-0.5-1-0.4-1.2-0.4c-0.6,0.1-1.3,0.3-1.7,0.9
				c-2.1,3.1-2.3,7.3-0.7,10.7C1803.8,995.5,1806.6,994.5,1806.3,993.9L1806.3,993.9z"/>
		</g>
	</g>
	<g>
		<g>
			<path class="st3" d="M1804.8,994.7c0.5,0,1.6-0.2,1.9-0.7c0.3-0.5-0.3-0.6-0.7-0.6c-0.5,0-1.6,0.2-1.9,0.7
				C1803.8,994.6,1804.4,994.7,1804.8,994.7L1804.8,994.7z"/>
		</g>
	</g>
	<g>
		<g>
			<path class="st3" d="M1511.4,641.8c3.5,4.8,7.1,9.6,10.6,14.4c0.5,0.7,3.1-0.5,2.9-0.8c-3.5-4.8-7.1-9.6-10.6-14.4
				C1513.7,640.4,1511.2,641.6,1511.4,641.8L1511.4,641.8z"/>
		</g>
	</g>
	<g>
		<g>
			<path class="st3" d="M1528.9,661.9c0-4.8,0-9.7,0-14.5c0-0.7-0.7-0.8-1.3-0.7c-0.5,0-1.6,0.4-1.6,1c0,4.8,0,9.7,0,14.5
				c0,0.7,0.7,0.8,1.3,0.7C1527.7,662.9,1528.9,662.6,1528.9,661.9L1528.9,661.9z"/>
		</g>
	</g>
	<g>
		<g>
			<path class="st3" d="M1498.2,1002.9C1497.8,1003,1498.2,1002.9,1498.2,1002.9c0.2,0,0.3,0,0.3,0c0.3,0-0.3,0,0,0
				c0.1,0,0.2,0,0.3,0.1c0.1,0,0.2,0,0.3,0.1c0.2,0.1-0.2-0.1,0.1,0c0.2,0.1,0.4,0.1,0.6,0.2c0.2,0.1,0.3,0.2,0.5,0.2
				c0.2,0.1,0.2,0.1,0.4,0.3c0.3,0.2,0.6,0.5,0.9,0.8c1,1.1,1.6,2.6,1.4,4.1c-0.1,0.6,0.8,0.6,1.2,0.6c0.4-0.1,0.8-0.2,1.1-0.4
				c0.2-0.1,0.5-0.3,0.6-0.6c0.3-1.8-0.4-3.6-1.7-4.9c-1.4-1.5-3.4-2.1-5.5-2c-0.5,0-1.5,0.4-1.7,1
				C1496.8,1003,1497.9,1002.9,1498.2,1002.9L1498.2,1002.9z"/>
		</g>
	</g>
	<g>
		<g>
			<path class="st3" d="M1497.5,1002.9c0.6,0,1.5-0.1,2-0.5c0.4-0.3,0.5-0.7-0.2-0.7c-0.6,0-1.5,0.1-2,0.5
				C1496.9,1002.6,1496.8,1002.9,1497.5,1002.9L1497.5,1002.9z"/>
		</g>
	</g>
	<g>
		<g>
			<path class="st3" d="M1511.2,992.1c-0.7,3.5-1.4,6.9-2.1,10.4c-0.2,0.8,2.7,0.3,2.9-0.5c0.7-3.5,1.4-6.9,2.1-10.4
				C1514.2,990.9,1511.4,991.3,1511.2,992.1L1511.2,992.1z"/>
		</g>
	</g>
</g>
</svg>
